<svg xmlns="http://www.w3.org/2000/svg" xmlns:xlink="http://www.w3.org/1999/xlink" version="1.2" width="3780.00mm" height="150.00mm" viewBox="0 0 2151.0283 85.3583">
<style type="text/css">
<![CDATA[
tspan { white-space: pre; }
]]>
</style>
<!-- Page: 1/1 -->
<g transform="translate(465.5346, 9.8333)">
<rect x="-0.0795" y="-8.8333" width="0.1590" height="8.5902" ry="0.0400" fill="currentColor"/>
</g>
<a style="color:inherit;" xlink:href="textedit://C:/Users/jwloy/Documents/GitHub/ill20240130/public/pieces/ill20240130/notation/ill20240130-002.ly:88:48:49">
<g transform="translate(464.0000, 9.8333)">
<path transform="scale(0.0049, -0.0049)" d="M222 135c53 0 104 -27 104 -86c0 -71 -56 -120 -103 -148c-36 -22 -76 -36 -118 -36c-53 0 -105 27 -105 86c0 71 57 120 104 148c36 22 76 36 118 36z" fill="currentColor"/>
</g>
</a>
<a style="color:inherit;" xlink:href="textedit://C:/Users/jwloy/Documents/GitHub/ill20240130/public/pieces/ill20240130/notation/ill20240130-002.ly:88:51:52">
<g transform="translate(485.0000, 9.8333)">
<path transform="scale(0.0049, -0.0049)" d="M222 135c53 0 104 -27 104 -86c0 -71 -56 -120 -103 -148c-36 -22 -76 -36 -118 -36c-53 0 -105 27 -105 86c0 71 57 120 104 148c36 22 76 36 118 36z" fill="currentColor"/>
</g>
</a>
<g transform="translate(444.5346, 9.8333)">
<rect x="-0.0795" y="-8.8333" width="0.1590" height="8.5902" ry="0.0400" fill="currentColor"/>
</g>
<a style="color:inherit;" xlink:href="textedit://C:/Users/jwloy/Documents/GitHub/ill20240130/public/pieces/ill20240130/notation/ill20240130-002.ly:88:45:46">
<g transform="translate(443.0000, 9.8333)">
<path transform="scale(0.0049, -0.0049)" d="M222 135c53 0 104 -27 104 -86c0 -71 -56 -120 -103 -148c-36 -22 -76 -36 -118 -36c-53 0 -105 27 -105 86c0 71 57 120 104 148c36 22 76 36 118 36z" fill="currentColor"/>
</g>
</a>
<g transform="translate(423.5346, 9.8333)">
<rect x="-0.0795" y="-8.8333" width="0.1590" height="8.5902" ry="0.0400" fill="currentColor"/>
</g>
<g transform="translate(486.5346, 9.8333)">
<rect x="-0.0795" y="-8.8333" width="0.1590" height="8.5902" ry="0.0400" fill="currentColor"/>
</g>
<a style="color:inherit;" xlink:href="textedit://C:/Users/jwloy/Documents/GitHub/ill20240130/public/pieces/ill20240130/notation/ill20240130-002.ly:88:54:55">
<g transform="translate(506.0000, 9.8333)">
<path transform="scale(0.0049, -0.0049)" d="M222 135c53 0 104 -27 104 -86c0 -71 -56 -120 -103 -148c-36 -22 -76 -36 -118 -36c-53 0 -105 27 -105 86c0 71 57 120 104 148c36 22 76 36 118 36z" fill="currentColor"/>
</g>
</a>
<g transform="translate(507.5346, 9.8333)">
<rect x="-0.0795" y="-8.8333" width="0.1590" height="8.5902" ry="0.0400" fill="currentColor"/>
</g>
<a style="color:inherit;" xlink:href="textedit://C:/Users/jwloy/Documents/GitHub/ill20240130/public/pieces/ill20240130/notation/ill20240130-002.ly:88:57:58">
<g transform="translate(527.0000, 9.8333)">
<path transform="scale(0.0049, -0.0049)" d="M222 135c53 0 104 -27 104 -86c0 -71 -56 -120 -103 -148c-36 -22 -76 -36 -118 -36c-53 0 -105 27 -105 86c0 71 57 120 104 148c36 22 76 36 118 36z" fill="currentColor"/>
</g>
</a>
<g transform="translate(528.5346, 9.8333)">
<rect x="-0.0795" y="-8.8333" width="0.1590" height="8.5902" ry="0.0400" fill="currentColor"/>
</g>
<a style="color:inherit;" xlink:href="textedit://C:/Users/jwloy/Documents/GitHub/ill20240130/public/pieces/ill20240130/notation/ill20240130-002.ly:88:30:31">
<g transform="translate(338.0000, 9.8333)">
<path transform="scale(0.0049, -0.0049)" d="M222 135c53 0 104 -27 104 -86c0 -71 -56 -120 -103 -148c-36 -22 -76 -36 -118 -36c-53 0 -105 27 -105 86c0 71 57 120 104 148c36 22 76 36 118 36z" fill="currentColor"/>
</g>
</a>
<g transform="translate(360.5346, 9.8333)">
<rect x="-0.0795" y="-8.8333" width="0.1590" height="8.5902" ry="0.0400" fill="currentColor"/>
</g>
<a style="color:inherit;" xlink:href="textedit://C:/Users/jwloy/Documents/GitHub/ill20240130/public/pieces/ill20240130/notation/ill20240130-002.ly:88:33:34">
<g transform="translate(359.0000, 9.8333)">
<path transform="scale(0.0049, -0.0049)" d="M222 135c53 0 104 -27 104 -86c0 -71 -56 -120 -103 -148c-36 -22 -76 -36 -118 -36c-53 0 -105 27 -105 86c0 71 57 120 104 148c36 22 76 36 118 36z" fill="currentColor"/>
</g>
</a>
<g transform="translate(339.5346, 9.8333)">
<rect x="-0.0795" y="-8.8333" width="0.1590" height="8.5902" ry="0.0400" fill="currentColor"/>
</g>
<g transform="translate(318.5346, 9.8333)">
<rect x="-0.0795" y="-8.8333" width="0.1590" height="8.5902" ry="0.0400" fill="currentColor"/>
</g>
<a style="color:inherit;" xlink:href="textedit://C:/Users/jwloy/Documents/GitHub/ill20240130/public/pieces/ill20240130/notation/ill20240130-002.ly:88:27:28">
<g transform="translate(317.0000, 9.8333)">
<path transform="scale(0.0049, -0.0049)" d="M222 135c53 0 104 -27 104 -86c0 -71 -56 -120 -103 -148c-36 -22 -76 -36 -118 -36c-53 0 -105 27 -105 86c0 71 57 120 104 148c36 22 76 36 118 36z" fill="currentColor"/>
</g>
</a>
<a style="color:inherit;" xlink:href="textedit://C:/Users/jwloy/Documents/GitHub/ill20240130/public/pieces/ill20240130/notation/ill20240130-002.ly:91:8:9">
<g transform="translate(800.0000, 9.8333)">
<path transform="scale(0.0049, -0.0049)" d="M222 135c53 0 104 -27 104 -86c0 -71 -56 -120 -103 -148c-36 -22 -76 -36 -118 -36c-53 0 -105 27 -105 86c0 71 57 120 104 148c36 22 76 36 118 36z" fill="currentColor"/>
</g>
</a>
<a style="color:inherit;" xlink:href="textedit://C:/Users/jwloy/Documents/GitHub/ill20240130/public/pieces/ill20240130/notation/ill20240130-002.ly:88:36:37">
<g transform="translate(380.0000, 9.8333)">
<path transform="scale(0.0049, -0.0049)" d="M222 135c53 0 104 -27 104 -86c0 -71 -56 -120 -103 -148c-36 -22 -76 -36 -118 -36c-53 0 -105 27 -105 86c0 71 57 120 104 148c36 22 76 36 118 36z" fill="currentColor"/>
</g>
</a>
<g transform="translate(381.5346, 9.8333)">
<rect x="-0.0795" y="-8.8333" width="0.1590" height="8.5902" ry="0.0400" fill="currentColor"/>
</g>
<a style="color:inherit;" xlink:href="textedit://C:/Users/jwloy/Documents/GitHub/ill20240130/public/pieces/ill20240130/notation/ill20240130-002.ly:88:39:40">
<g transform="translate(401.0000, 9.8333)">
<path transform="scale(0.0049, -0.0049)" d="M222 135c53 0 104 -27 104 -86c0 -71 -56 -120 -103 -148c-36 -22 -76 -36 -118 -36c-53 0 -105 27 -105 86c0 71 57 120 104 148c36 22 76 36 118 36z" fill="currentColor"/>
</g>
</a>
<g transform="translate(402.5346, 9.8333)">
<rect x="-0.0795" y="-8.8333" width="0.1590" height="8.5902" ry="0.0400" fill="currentColor"/>
</g>
<a style="color:inherit;" xlink:href="textedit://C:/Users/jwloy/Documents/GitHub/ill20240130/public/pieces/ill20240130/notation/ill20240130-002.ly:88:42:43">
<g transform="translate(422.0000, 9.8333)">
<path transform="scale(0.0049, -0.0049)" d="M222 135c53 0 104 -27 104 -86c0 -71 -56 -120 -103 -148c-36 -22 -76 -36 -118 -36c-53 0 -105 27 -105 86c0 71 57 120 104 148c36 22 76 36 118 36z" fill="currentColor"/>
</g>
</a>
<a style="color:inherit;" xlink:href="textedit://C:/Users/jwloy/Documents/GitHub/ill20240130/public/pieces/ill20240130/notation/ill20240130-002.ly:88:84:85">
<g transform="translate(716.0000, 9.8333)">
<path transform="scale(0.0049, -0.0049)" d="M222 135c53 0 104 -27 104 -86c0 -71 -56 -120 -103 -148c-36 -22 -76 -36 -118 -36c-53 0 -105 27 -105 86c0 71 57 120 104 148c36 22 76 36 118 36z" fill="currentColor"/>
</g>
</a>
<g transform="translate(654.5346, 9.8333)">
<rect x="-0.0795" y="-8.8333" width="0.1590" height="8.5902" ry="0.0400" fill="currentColor"/>
</g>
<a style="color:inherit;" xlink:href="textedit://C:/Users/jwloy/Documents/GitHub/ill20240130/public/pieces/ill20240130/notation/ill20240130-002.ly:88:93:94">
<g transform="translate(779.0000, 9.8333)">
<path transform="scale(0.0049, -0.0049)" d="M222 135c53 0 104 -27 104 -86c0 -71 -56 -120 -103 -148c-36 -22 -76 -36 -118 -36c-53 0 -105 27 -105 86c0 71 57 120 104 148c36 22 76 36 118 36z" fill="currentColor"/>
</g>
</a>
<a style="color:inherit;" xlink:href="textedit://C:/Users/jwloy/Documents/GitHub/ill20240130/public/pieces/ill20240130/notation/ill20240130-002.ly:88:78:79">
<g transform="translate(674.0000, 9.8333)">
<path transform="scale(0.0049, -0.0049)" d="M222 135c53 0 104 -27 104 -86c0 -71 -56 -120 -103 -148c-36 -22 -76 -36 -118 -36c-53 0 -105 27 -105 86c0 71 57 120 104 148c36 22 76 36 118 36z" fill="currentColor"/>
</g>
</a>
<g transform="translate(675.5346, 9.8333)">
<rect x="-0.0795" y="-8.8333" width="0.1590" height="8.5902" ry="0.0400" fill="currentColor"/>
</g>
<a style="color:inherit;" xlink:href="textedit://C:/Users/jwloy/Documents/GitHub/ill20240130/public/pieces/ill20240130/notation/ill20240130-002.ly:88:81:82">
<g transform="translate(695.0000, 9.8333)">
<path transform="scale(0.0049, -0.0049)" d="M222 135c53 0 104 -27 104 -86c0 -71 -56 -120 -103 -148c-36 -22 -76 -36 -118 -36c-53 0 -105 27 -105 86c0 71 57 120 104 148c36 22 76 36 118 36z" fill="currentColor"/>
</g>
</a>
<g transform="translate(696.5346, 9.8333)">
<rect x="-0.0795" y="-8.8333" width="0.1590" height="8.5902" ry="0.0400" fill="currentColor"/>
</g>
<a style="color:inherit;" xlink:href="textedit://C:/Users/jwloy/Documents/GitHub/ill20240130/public/pieces/ill20240130/notation/ill20240130-002.ly:88:75:76">
<g transform="translate(653.0000, 9.8333)">
<path transform="scale(0.0049, -0.0049)" d="M222 135c53 0 104 -27 104 -86c0 -71 -56 -120 -103 -148c-36 -22 -76 -36 -118 -36c-53 0 -105 27 -105 86c0 71 57 120 104 148c36 22 76 36 118 36z" fill="currentColor"/>
</g>
</a>
<g transform="translate(717.5346, 9.8333)">
<rect x="-0.0795" y="-8.8333" width="0.1590" height="8.5902" ry="0.0400" fill="currentColor"/>
</g>
<a style="color:inherit;" xlink:href="textedit://C:/Users/jwloy/Documents/GitHub/ill20240130/public/pieces/ill20240130/notation/ill20240130-002.ly:88:87:88">
<g transform="translate(737.0000, 9.8333)">
<path transform="scale(0.0049, -0.0049)" d="M222 135c53 0 104 -27 104 -86c0 -71 -56 -120 -103 -148c-36 -22 -76 -36 -118 -36c-53 0 -105 27 -105 86c0 71 57 120 104 148c36 22 76 36 118 36z" fill="currentColor"/>
</g>
</a>
<g transform="translate(738.5346, 9.8333)">
<rect x="-0.0795" y="-8.8333" width="0.1590" height="8.5902" ry="0.0400" fill="currentColor"/>
</g>
<a style="color:inherit;" xlink:href="textedit://C:/Users/jwloy/Documents/GitHub/ill20240130/public/pieces/ill20240130/notation/ill20240130-002.ly:88:90:91">
<g transform="translate(758.0000, 9.8333)">
<path transform="scale(0.0049, -0.0049)" d="M222 135c53 0 104 -27 104 -86c0 -71 -56 -120 -103 -148c-36 -22 -76 -36 -118 -36c-53 0 -105 27 -105 86c0 71 57 120 104 148c36 22 76 36 118 36z" fill="currentColor"/>
</g>
</a>
<g transform="translate(759.5346, 9.8333)">
<rect x="-0.0795" y="-8.8333" width="0.1590" height="8.5902" ry="0.0400" fill="currentColor"/>
</g>
<a style="color:inherit;" xlink:href="textedit://C:/Users/jwloy/Documents/GitHub/ill20240130/public/pieces/ill20240130/notation/ill20240130-002.ly:80:56:57">
<g transform="translate(24.4551, 3.0122)">
<polygon stroke-linejoin="round" stroke-linecap="round" stroke-width="0.0800" fill="currentColor" stroke="currentColor" points="81.3310 -0.2000 81.3310 0.2000 0.0400 0.2000 0.0400 -0.2000"/>
</g>
</a>
<a style="color:inherit;" xlink:href="textedit://C:/Users/jwloy/Documents/GitHub/ill20240130/public/pieces/ill20240130/notation/ill20240130-002.ly:88:60:61">
<g transform="translate(548.0000, 9.8333)">
<path transform="scale(0.0049, -0.0049)" d="M222 135c53 0 104 -27 104 -86c0 -71 -56 -120 -103 -148c-36 -22 -76 -36 -118 -36c-53 0 -105 27 -105 86c0 71 57 120 104 148c36 22 76 36 118 36z" fill="currentColor"/>
</g>
</a>
<g transform="translate(549.5346, 9.8333)">
<rect x="-0.0795" y="-8.8333" width="0.1590" height="8.5902" ry="0.0400" fill="currentColor"/>
</g>
<a style="color:inherit;" xlink:href="textedit://C:/Users/jwloy/Documents/GitHub/ill20240130/public/pieces/ill20240130/notation/ill20240130-002.ly:88:63:64">
<g transform="translate(569.0000, 9.8333)">
<path transform="scale(0.0049, -0.0049)" d="M222 135c53 0 104 -27 104 -86c0 -71 -56 -120 -103 -148c-36 -22 -76 -36 -118 -36c-53 0 -105 27 -105 86c0 71 57 120 104 148c36 22 76 36 118 36z" fill="currentColor"/>
</g>
</a>
<g transform="translate(570.5346, 9.8333)">
<rect x="-0.0795" y="-8.8333" width="0.1590" height="8.5902" ry="0.0400" fill="currentColor"/>
</g>
<a style="color:inherit;" xlink:href="textedit://C:/Users/jwloy/Documents/GitHub/ill20240130/public/pieces/ill20240130/notation/ill20240130-002.ly:88:66:67">
<g transform="translate(590.0000, 9.8333)">
<path transform="scale(0.0049, -0.0049)" d="M222 135c53 0 104 -27 104 -86c0 -71 -56 -120 -103 -148c-36 -22 -76 -36 -118 -36c-53 0 -105 27 -105 86c0 71 57 120 104 148c36 22 76 36 118 36z" fill="currentColor"/>
</g>
</a>
<g transform="translate(591.5346, 9.8333)">
<rect x="-0.0795" y="-8.8333" width="0.1590" height="8.5902" ry="0.0400" fill="currentColor"/>
</g>
<a style="color:inherit;" xlink:href="textedit://C:/Users/jwloy/Documents/GitHub/ill20240130/public/pieces/ill20240130/notation/ill20240130-002.ly:88:69:70">
<g transform="translate(611.0000, 9.8333)">
<path transform="scale(0.0049, -0.0049)" d="M222 135c53 0 104 -27 104 -86c0 -71 -56 -120 -103 -148c-36 -22 -76 -36 -118 -36c-53 0 -105 27 -105 86c0 71 57 120 104 148c36 22 76 36 118 36z" fill="currentColor"/>
</g>
</a>
<g transform="translate(612.5346, 9.8333)">
<rect x="-0.0795" y="-8.8333" width="0.1590" height="8.5902" ry="0.0400" fill="currentColor"/>
</g>
<g transform="translate(780.5346, 9.8333)">
<rect x="-0.0795" y="-8.8333" width="0.1590" height="8.5902" ry="0.0400" fill="currentColor"/>
</g>
<a style="color:inherit;" xlink:href="textedit://C:/Users/jwloy/Documents/GitHub/ill20240130/public/pieces/ill20240130/notation/ill20240130-002.ly:88:72:73">
<g transform="translate(632.0000, 9.8333)">
<path transform="scale(0.0049, -0.0049)" d="M222 135c53 0 104 -27 104 -86c0 -71 -56 -120 -103 -148c-36 -22 -76 -36 -118 -36c-53 0 -105 27 -105 86c0 71 57 120 104 148c36 22 76 36 118 36z" fill="currentColor"/>
</g>
</a>
<g transform="translate(633.5346, 9.8333)">
<rect x="-0.0795" y="-8.8333" width="0.1590" height="8.5902" ry="0.0400" fill="currentColor"/>
</g>
<a style="color:inherit;" xlink:href="textedit://C:/Users/jwloy/Documents/GitHub/ill20240130/public/pieces/ill20240130/notation/ill20240130-002.ly:80:70:71">
<g transform="translate(95.2259, 11.8333)">
<path transform="scale(0.0049, -0.0049)" d="M222 135c53 0 104 -27 104 -86c0 -71 -56 -120 -103 -148c-36 -22 -76 -36 -118 -36c-53 0 -105 27 -105 86c0 71 57 120 104 148c36 22 76 36 118 36z" fill="currentColor"/>
</g>
</a>
<a style="color:inherit;" xlink:href="textedit://C:/Users/jwloy/Documents/GitHub/ill20240130/public/pieces/ill20240130/notation/ill20240130-002.ly:80:64:65">
<g transform="translate(78.5162, 11.8333)">
<path transform="scale(0.0049, -0.0049)" d="M222 135c53 0 104 -27 104 -86c0 -71 -56 -120 -103 -148c-36 -22 -76 -36 -118 -36c-53 0 -105 27 -105 86c0 71 57 120 104 148c36 22 76 36 118 36z" fill="currentColor"/>
</g>
</a>
<g transform="translate(80.0509, 9.8333)">
<rect x="-0.0795" y="-6.8211" width="0.1590" height="8.5780" ry="0.0400" fill="currentColor"/>
</g>
<a style="color:inherit;" xlink:href="textedit://C:/Users/jwloy/Documents/GitHub/ill20240130/public/pieces/ill20240130/notation/ill20240130-002.ly:80:67:68">
<g transform="translate(88.1564, 11.8333)">
<path transform="scale(0.0049, -0.0049)" d="M222 135c53 0 104 -27 104 -86c0 -71 -56 -120 -103 -148c-36 -22 -76 -36 -118 -36c-53 0 -105 27 -105 86c0 71 57 120 104 148c36 22 76 36 118 36z" fill="currentColor"/>
</g>
</a>
<g transform="translate(89.6911, 9.8333)">
<rect x="-0.0795" y="-6.8211" width="0.1590" height="8.5780" ry="0.0400" fill="currentColor"/>
</g>
<g transform="translate(96.7605, 9.8333)">
<rect x="-0.0795" y="-6.8211" width="0.1590" height="8.5780" ry="0.0400" fill="currentColor"/>
</g>
<g transform="translate(101.9448, 9.8333)">
<rect x="-0.0795" y="-6.8211" width="0.1590" height="8.5780" ry="0.0400" fill="currentColor"/>
</g>
<a style="color:inherit;" xlink:href="textedit://C:/Users/jwloy/Documents/GitHub/ill20240130/public/pieces/ill20240130/notation/ill20240130-002.ly:80:76:77">
<g transform="translate(104.2120, 11.8333)">
<path transform="scale(0.0049, -0.0049)" d="M222 135c53 0 104 -27 104 -86c0 -71 -56 -120 -103 -148c-36 -22 -76 -36 -118 -36c-53 0 -105 27 -105 86c0 71 57 120 104 148c36 22 76 36 118 36z" fill="currentColor"/>
</g>
</a>
<g transform="translate(105.7466, 9.8333)">
<rect x="-0.0795" y="-6.8211" width="0.1590" height="8.5780" ry="0.0400" fill="currentColor"/>
</g>
<a style="color:inherit;" xlink:href="textedit://C:/Users/jwloy/Documents/GitHub/ill20240130/public/pieces/ill20240130/notation/ill20240130-002.ly:76:8:9">
<g transform="translate(2.0000, 9.8333)">
<path transform="scale(0.0066, -0.0066)" d="M-23 -113c0 26 10 40 36 40c34 0 85 -15 130 -37l-137 164c-7 8 -10 17 -10 25c0 33 49 64 86 96c26 22 39 54 39 85c0 24 -8 47 -24 67l-39 46c-2 3 -3 6 -3 9c0 7 7 14 14 14c3 0 7 -1 10 -5l152 -182c7 -8 10 -17 10 -25c0 -33 -49 -64 -86 -96
c-26 -22 -39 -54 -39 -85c0 -24 8 -47 24 -67l87 -104c2 -3 3 -5 3 -8c0 -7 -7 -14 -14 -14c-3 0 -7 1 -10 5c-19 22 -66 43 -102 43c-40 0 -52 -29 -52 -70c0 -35 11 -75 28 -96c6 -7 -4 -16 -10 -9c-46 55 -93 150 -93 204z" fill="currentColor"/>
</g>
</a>
<a style="color:inherit;" xlink:href="textedit://C:/Users/jwloy/Documents/GitHub/ill20240130/public/pieces/ill20240130/notation/ill20240130-002.ly:72:8:9">
</a>
<a style="color:inherit;" xlink:href="textedit://C:/Users/jwloy/Documents/GitHub/ill20240130/public/pieces/ill20240130/notation/ill20240130-002.ly:80:73:74">
<g transform="translate(100.4102, 11.8333)">
<path transform="scale(0.0049, -0.0049)" d="M222 135c53 0 104 -27 104 -86c0 -71 -56 -120 -103 -148c-36 -22 -76 -36 -118 -36c-53 0 -105 27 -105 86c0 71 57 120 104 148c36 22 76 36 118 36z" fill="currentColor"/>
</g>
</a>
<a style="color:inherit;" xlink:href="textedit://C:/Users/jwloy/Documents/GitHub/ill20240130/public/pieces/ill20240130/notation/ill20240130-002.ly:80:52:53">
<g transform="translate(23.0000, 11.8333)">
<path transform="scale(0.0049, -0.0049)" d="M222 135c53 0 104 -27 104 -86c0 -71 -56 -120 -103 -148c-36 -22 -76 -36 -118 -36c-53 0 -105 27 -105 86c0 71 57 120 104 148c36 22 76 36 118 36z" fill="currentColor"/>
</g>
</a>
<g transform="translate(24.5346, 9.8333)">
<rect x="-0.0795" y="-6.8211" width="0.1590" height="8.5780" ry="0.0400" fill="currentColor"/>
</g>
<a style="color:inherit;" xlink:href="textedit://C:/Users/jwloy/Documents/GitHub/ill20240130/public/pieces/ill20240130/notation/ill20240130-002.ly:80:58:59">
<g transform="translate(47.4445, 11.8333)">
<path transform="scale(0.0049, -0.0049)" d="M222 135c53 0 104 -27 104 -86c0 -71 -56 -120 -103 -148c-36 -22 -76 -36 -118 -36c-53 0 -105 27 -105 86c0 71 57 120 104 148c36 22 76 36 118 36z" fill="currentColor"/>
</g>
</a>
<g transform="translate(48.9792, 9.8333)">
<rect x="-0.0795" y="-6.8211" width="0.1590" height="8.5780" ry="0.0400" fill="currentColor"/>
</g>
<a style="color:inherit;" xlink:href="textedit://C:/Users/jwloy/Documents/GitHub/ill20240130/public/pieces/ill20240130/notation/ill20240130-002.ly:80:61:62">
<g transform="translate(65.3705, 11.8333)">
<path transform="scale(0.0049, -0.0049)" d="M222 135c53 0 104 -27 104 -86c0 -71 -56 -120 -103 -148c-36 -22 -76 -36 -118 -36c-53 0 -105 27 -105 86c0 71 57 120 104 148c36 22 76 36 118 36z" fill="currentColor"/>
</g>
</a>
<g transform="translate(66.9051, 9.8333)">
<rect x="-0.0795" y="-6.8211" width="0.1590" height="8.5780" ry="0.0400" fill="currentColor"/>
</g>
<g transform="translate(192.5346, 9.8333)">
<rect x="-0.0795" y="-8.8333" width="0.1590" height="8.5902" ry="0.0400" fill="currentColor"/>
</g>
<g transform="translate(276.5346, 9.8333)">
<rect x="-0.0795" y="-8.8333" width="0.1590" height="8.5902" ry="0.0400" fill="currentColor"/>
</g>
<a style="color:inherit;" xlink:href="textedit://C:/Users/jwloy/Documents/GitHub/ill20240130/public/pieces/ill20240130/notation/ill20240130-002.ly:88:12:13">
<g transform="translate(212.0000, 9.8333)">
<path transform="scale(0.0049, -0.0049)" d="M222 135c53 0 104 -27 104 -86c0 -71 -56 -120 -103 -148c-36 -22 -76 -36 -118 -36c-53 0 -105 27 -105 86c0 71 57 120 104 148c36 22 76 36 118 36z" fill="currentColor"/>
</g>
</a>
<a style="color:inherit;" xlink:href="textedit://C:/Users/jwloy/Documents/GitHub/ill20240130/public/pieces/ill20240130/notation/ill20240130-002.ly:88:21:22">
<g transform="translate(275.0000, 9.8333)">
<path transform="scale(0.0049, -0.0049)" d="M222 135c53 0 104 -27 104 -86c0 -71 -56 -120 -103 -148c-36 -22 -76 -36 -118 -36c-53 0 -105 27 -105 86c0 71 57 120 104 148c36 22 76 36 118 36z" fill="currentColor"/>
</g>
</a>
<g transform="translate(213.5346, 9.8333)">
<rect x="-0.0795" y="-8.8333" width="0.1590" height="8.5902" ry="0.0400" fill="currentColor"/>
</g>
<a style="color:inherit;" xlink:href="textedit://C:/Users/jwloy/Documents/GitHub/ill20240130/public/pieces/ill20240130/notation/ill20240130-002.ly:88:15:16">
<g transform="translate(233.0000, 9.8333)">
<path transform="scale(0.0049, -0.0049)" d="M222 135c53 0 104 -27 104 -86c0 -71 -56 -120 -103 -148c-36 -22 -76 -36 -118 -36c-53 0 -105 27 -105 86c0 71 57 120 104 148c36 22 76 36 118 36z" fill="currentColor"/>
</g>
</a>
<g transform="translate(234.5346, 9.8333)">
<rect x="-0.0795" y="-8.8333" width="0.1590" height="8.5902" ry="0.0400" fill="currentColor"/>
</g>
<a style="color:inherit;" xlink:href="textedit://C:/Users/jwloy/Documents/GitHub/ill20240130/public/pieces/ill20240130/notation/ill20240130-002.ly:88:18:19">
<g transform="translate(254.0000, 9.8333)">
<path transform="scale(0.0049, -0.0049)" d="M222 135c53 0 104 -27 104 -86c0 -71 -56 -120 -103 -148c-36 -22 -76 -36 -118 -36c-53 0 -105 27 -105 86c0 71 57 120 104 148c36 22 76 36 118 36z" fill="currentColor"/>
</g>
</a>
<g transform="translate(255.5346, 9.8333)">
<rect x="-0.0795" y="-8.8333" width="0.1590" height="8.5902" ry="0.0400" fill="currentColor"/>
</g>
<g transform="translate(297.5346, 9.8333)">
<rect x="-0.0795" y="-8.8333" width="0.1590" height="8.5902" ry="0.0400" fill="currentColor"/>
</g>
<a style="color:inherit;" xlink:href="textedit://C:/Users/jwloy/Documents/GitHub/ill20240130/public/pieces/ill20240130/notation/ill20240130-002.ly:88:24:25">
<g transform="translate(296.0000, 9.8333)">
<path transform="scale(0.0049, -0.0049)" d="M222 135c53 0 104 -27 104 -86c0 -71 -56 -120 -103 -148c-36 -22 -76 -36 -118 -36c-53 0 -105 27 -105 86c0 71 57 120 104 148c36 22 76 36 118 36z" fill="currentColor"/>
</g>
</a>
<g transform="translate(800.0795, 9.8333)">
<rect x="-0.0795" y="0.2432" width="0.1590" height="8.5902" ry="0.0400" fill="currentColor"/>
</g>
<a style="color:inherit;" xlink:href="textedit://C:/Users/jwloy/Documents/GitHub/ill20240130/public/pieces/ill20240130/notation/ill20240130-002.ly:88:8:9">
<g transform="translate(191.0000, 9.8333)">
<path transform="scale(0.0049, -0.0049)" d="M222 135c53 0 104 -27 104 -86c0 -71 -56 -120 -103 -148c-36 -22 -76 -36 -118 -36c-53 0 -105 27 -105 86c0 71 57 120 104 148c36 22 76 36 118 36z" fill="currentColor"/>
</g>
</a>
</svg>
