<svg xmlns="http://www.w3.org/2000/svg" xmlns:xlink="http://www.w3.org/1999/xlink" version="1.2" width="3885.00mm" height="150.00mm" viewBox="0 0 2210.7791 85.3583">
<style type="text/css">
<![CDATA[
tspan { white-space: pre; }
]]>
</style>
<!-- Page: 1/1 -->
<a style="color:inherit;" xlink:href="textedit://C:/Users/jwloy/Documents/GitHub/ill20240130/public/pieces/ill20240130/notation/ill20240130-beats.ly:79:17:18">
<g transform="translate(443.0000, 9.8333)">
<path transform="scale(0.0049, -0.0049)" d="M222 135c53 0 104 -27 104 -86c0 -71 -56 -120 -103 -148c-36 -22 -76 -36 -118 -36c-53 0 -105 27 -105 86c0 71 57 120 104 148c36 22 76 36 118 36z" fill="currentColor"/>
</g>
</a>
<g transform="translate(444.5346, 9.8333)">
<rect x="-0.0795" y="-8.8333" width="0.1590" height="8.5902" ry="0.0400" fill="currentColor"/>
</g>
<a style="color:inherit;" xlink:href="textedit://C:/Users/jwloy/Documents/GitHub/ill20240130/public/pieces/ill20240130/notation/ill20240130-beats.ly:79:20:21">
<g transform="translate(464.0000, 9.8333)">
<path transform="scale(0.0049, -0.0049)" d="M222 135c53 0 104 -27 104 -86c0 -71 -56 -120 -103 -148c-36 -22 -76 -36 -118 -36c-53 0 -105 27 -105 86c0 71 57 120 104 148c36 22 76 36 118 36z" fill="currentColor"/>
</g>
</a>
<g transform="translate(465.5346, 9.8333)">
<rect x="-0.0795" y="-8.8333" width="0.1590" height="8.5902" ry="0.0400" fill="currentColor"/>
</g>
<g transform="translate(423.5346, 9.8333)">
<rect x="-0.0795" y="-8.8333" width="0.1590" height="8.5902" ry="0.0400" fill="currentColor"/>
</g>
<a style="color:inherit;" xlink:href="textedit://C:/Users/jwloy/Documents/GitHub/ill20240130/public/pieces/ill20240130/notation/ill20240130-beats.ly:79:23:24">
<g transform="translate(485.0000, 9.8333)">
<path transform="scale(0.0049, -0.0049)" d="M222 135c53 0 104 -27 104 -86c0 -71 -56 -120 -103 -148c-36 -22 -76 -36 -118 -36c-53 0 -105 27 -105 86c0 71 57 120 104 148c36 22 76 36 118 36z" fill="currentColor"/>
</g>
</a>
<g transform="translate(486.5346, 9.8333)">
<rect x="-0.0795" y="-8.8333" width="0.1590" height="8.5902" ry="0.0400" fill="currentColor"/>
</g>
<a style="color:inherit;" xlink:href="textedit://C:/Users/jwloy/Documents/GitHub/ill20240130/public/pieces/ill20240130/notation/ill20240130-beats.ly:79:26:27">
<g transform="translate(506.0000, 9.8333)">
<path transform="scale(0.0049, -0.0049)" d="M222 135c53 0 104 -27 104 -86c0 -71 -56 -120 -103 -148c-36 -22 -76 -36 -118 -36c-53 0 -105 27 -105 86c0 71 57 120 104 148c36 22 76 36 118 36z" fill="currentColor"/>
</g>
</a>
<g transform="translate(507.5346, 9.8333)">
<rect x="-0.0795" y="-8.8333" width="0.1590" height="8.5902" ry="0.0400" fill="currentColor"/>
</g>
<a style="color:inherit;" xlink:href="textedit://C:/Users/jwloy/Documents/GitHub/ill20240130/public/pieces/ill20240130/notation/ill20240130-beats.ly:79:29:30">
<g transform="translate(527.0000, 9.8333)">
<path transform="scale(0.0049, -0.0049)" d="M222 135c53 0 104 -27 104 -86c0 -71 -56 -120 -103 -148c-36 -22 -76 -36 -118 -36c-53 0 -105 27 -105 86c0 71 57 120 104 148c36 22 76 36 118 36z" fill="currentColor"/>
</g>
</a>
<g transform="translate(528.5346, 9.8333)">
<rect x="-0.0795" y="-8.8333" width="0.1590" height="8.5902" ry="0.0400" fill="currentColor"/>
</g>
<a style="color:inherit;" xlink:href="textedit://C:/Users/jwloy/Documents/GitHub/ill20240130/public/pieces/ill20240130/notation/ill20240130-beats.ly:78:26:27">
<g transform="translate(317.0000, 9.8333)">
<path transform="scale(0.0049, -0.0049)" d="M222 135c53 0 104 -27 104 -86c0 -71 -56 -120 -103 -148c-36 -22 -76 -36 -118 -36c-53 0 -105 27 -105 86c0 71 57 120 104 148c36 22 76 36 118 36z" fill="currentColor"/>
</g>
</a>
<g transform="translate(318.5346, 9.8333)">
<rect x="-0.0795" y="-8.8333" width="0.1590" height="8.5902" ry="0.0400" fill="currentColor"/>
</g>
<a style="color:inherit;" xlink:href="textedit://C:/Users/jwloy/Documents/GitHub/ill20240130/public/pieces/ill20240130/notation/ill20240130-beats.ly:78:29:30">
<g transform="translate(338.0000, 9.8333)">
<path transform="scale(0.0049, -0.0049)" d="M222 135c53 0 104 -27 104 -86c0 -71 -56 -120 -103 -148c-36 -22 -76 -36 -118 -36c-53 0 -105 27 -105 86c0 71 57 120 104 148c36 22 76 36 118 36z" fill="currentColor"/>
</g>
</a>
<g transform="translate(339.5346, 9.8333)">
<rect x="-0.0795" y="-8.8333" width="0.1590" height="8.5902" ry="0.0400" fill="currentColor"/>
</g>
<a style="color:inherit;" xlink:href="textedit://C:/Users/jwloy/Documents/GitHub/ill20240130/public/pieces/ill20240130/notation/ill20240130-beats.ly:78:32:33">
<g transform="translate(359.0000, 9.8333)">
<path transform="scale(0.0049, -0.0049)" d="M222 135c53 0 104 -27 104 -86c0 -71 -56 -120 -103 -148c-36 -22 -76 -36 -118 -36c-53 0 -105 27 -105 86c0 71 57 120 104 148c36 22 76 36 118 36z" fill="currentColor"/>
</g>
</a>
<g transform="translate(360.5346, 9.8333)">
<rect x="-0.0795" y="-8.8333" width="0.1590" height="8.5902" ry="0.0400" fill="currentColor"/>
</g>
<a style="color:inherit;" xlink:href="textedit://C:/Users/jwloy/Documents/GitHub/ill20240130/public/pieces/ill20240130/notation/ill20240130-beats.ly:79:8:9">
<g transform="translate(380.0000, 9.8333)">
<path transform="scale(0.0049, -0.0049)" d="M222 135c53 0 104 -27 104 -86c0 -71 -56 -120 -103 -148c-36 -22 -76 -36 -118 -36c-53 0 -105 27 -105 86c0 71 57 120 104 148c36 22 76 36 118 36z" fill="currentColor"/>
</g>
</a>
<g transform="translate(381.5346, 9.8333)">
<rect x="-0.0795" y="-8.8333" width="0.1590" height="8.5902" ry="0.0400" fill="currentColor"/>
</g>
<a style="color:inherit;" xlink:href="textedit://C:/Users/jwloy/Documents/GitHub/ill20240130/public/pieces/ill20240130/notation/ill20240130-beats.ly:79:11:12">
<g transform="translate(401.0000, 9.8333)">
<path transform="scale(0.0049, -0.0049)" d="M222 135c53 0 104 -27 104 -86c0 -71 -56 -120 -103 -148c-36 -22 -76 -36 -118 -36c-53 0 -105 27 -105 86c0 71 57 120 104 148c36 22 76 36 118 36z" fill="currentColor"/>
</g>
</a>
<g transform="translate(402.5346, 9.8333)">
<rect x="-0.0795" y="-8.8333" width="0.1590" height="8.5902" ry="0.0400" fill="currentColor"/>
</g>
<a style="color:inherit;" xlink:href="textedit://C:/Users/jwloy/Documents/GitHub/ill20240130/public/pieces/ill20240130/notation/ill20240130-beats.ly:79:14:15">
<g transform="translate(422.0000, 9.8333)">
<path transform="scale(0.0049, -0.0049)" d="M222 135c53 0 104 -27 104 -86c0 -71 -56 -120 -103 -148c-36 -22 -76 -36 -118 -36c-53 0 -105 27 -105 86c0 71 57 120 104 148c36 22 76 36 118 36z" fill="currentColor"/>
</g>
</a>
<g transform="translate(717.5346, 9.8333)">
<rect x="-0.0795" y="-8.8333" width="0.1590" height="8.5902" ry="0.0400" fill="currentColor"/>
</g>
<a style="color:inherit;" xlink:href="textedit://C:/Users/jwloy/Documents/GitHub/ill20240130/public/pieces/ill20240130/notation/ill20240130-beats.ly:80:23:24">
<g transform="translate(674.0000, 9.8333)">
<path transform="scale(0.0049, -0.0049)" d="M222 135c53 0 104 -27 104 -86c0 -71 -56 -120 -103 -148c-36 -22 -76 -36 -118 -36c-53 0 -105 27 -105 86c0 71 57 120 104 148c36 22 76 36 118 36z" fill="currentColor"/>
</g>
</a>
<g transform="translate(675.5346, 9.8333)">
<rect x="-0.0795" y="-8.8333" width="0.1590" height="8.5902" ry="0.0400" fill="currentColor"/>
</g>
<a style="color:inherit;" xlink:href="textedit://C:/Users/jwloy/Documents/GitHub/ill20240130/public/pieces/ill20240130/notation/ill20240130-beats.ly:80:26:27">
<g transform="translate(695.0000, 9.8333)">
<path transform="scale(0.0049, -0.0049)" d="M222 135c53 0 104 -27 104 -86c0 -71 -56 -120 -103 -148c-36 -22 -76 -36 -118 -36c-53 0 -105 27 -105 86c0 71 57 120 104 148c36 22 76 36 118 36z" fill="currentColor"/>
</g>
</a>
<g transform="translate(696.5346, 9.8333)">
<rect x="-0.0795" y="-8.8333" width="0.1590" height="8.5902" ry="0.0400" fill="currentColor"/>
</g>
<a style="color:inherit;" xlink:href="textedit://C:/Users/jwloy/Documents/GitHub/ill20240130/public/pieces/ill20240130/notation/ill20240130-beats.ly:80:29:30">
<g transform="translate(716.0000, 9.8333)">
<path transform="scale(0.0049, -0.0049)" d="M222 135c53 0 104 -27 104 -86c0 -71 -56 -120 -103 -148c-36 -22 -76 -36 -118 -36c-53 0 -105 27 -105 86c0 71 57 120 104 148c36 22 76 36 118 36z" fill="currentColor"/>
</g>
</a>
<g transform="translate(654.5346, 9.8333)">
<rect x="-0.0795" y="-8.8333" width="0.1590" height="8.5902" ry="0.0400" fill="currentColor"/>
</g>
<a style="color:inherit;" xlink:href="textedit://C:/Users/jwloy/Documents/GitHub/ill20240130/public/pieces/ill20240130/notation/ill20240130-beats.ly:80:32:33">
<g transform="translate(737.0000, 9.8333)">
<path transform="scale(0.0049, -0.0049)" d="M222 135c53 0 104 -27 104 -86c0 -71 -56 -120 -103 -148c-36 -22 -76 -36 -118 -36c-53 0 -105 27 -105 86c0 71 57 120 104 148c36 22 76 36 118 36z" fill="currentColor"/>
</g>
</a>
<g transform="translate(738.5346, 9.8333)">
<rect x="-0.0795" y="-8.8333" width="0.1590" height="8.5902" ry="0.0400" fill="currentColor"/>
</g>
<a style="color:inherit;" xlink:href="textedit://C:/Users/jwloy/Documents/GitHub/ill20240130/public/pieces/ill20240130/notation/ill20240130-beats.ly:83:8:9">
<g transform="translate(758.0000, 9.8333)">
<path transform="scale(0.0049, -0.0049)" d="M222 135c53 0 104 -27 104 -86c0 -71 -56 -120 -103 -148c-36 -22 -76 -36 -118 -36c-53 0 -105 27 -105 86c0 71 57 120 104 148c36 22 76 36 118 36z" fill="currentColor"/>
</g>
</a>
<g transform="translate(758.0795, 9.8333)">
<rect x="-0.0795" y="0.2432" width="0.1590" height="8.5902" ry="0.0400" fill="currentColor"/>
</g>
<a style="color:inherit;" xlink:href="textedit://C:/Users/jwloy/Documents/GitHub/ill20240130/public/pieces/ill20240130/notation/ill20240130-beats.ly:79:32:33">
<g transform="translate(548.0000, 9.8333)">
<path transform="scale(0.0049, -0.0049)" d="M222 135c53 0 104 -27 104 -86c0 -71 -56 -120 -103 -148c-36 -22 -76 -36 -118 -36c-53 0 -105 27 -105 86c0 71 57 120 104 148c36 22 76 36 118 36z" fill="currentColor"/>
</g>
</a>
<g transform="translate(549.5346, 9.8333)">
<rect x="-0.0795" y="-8.8333" width="0.1590" height="8.5902" ry="0.0400" fill="currentColor"/>
</g>
<a style="color:inherit;" xlink:href="textedit://C:/Users/jwloy/Documents/GitHub/ill20240130/public/pieces/ill20240130/notation/ill20240130-beats.ly:80:8:9">
<g transform="translate(569.0000, 9.8333)">
<path transform="scale(0.0049, -0.0049)" d="M222 135c53 0 104 -27 104 -86c0 -71 -56 -120 -103 -148c-36 -22 -76 -36 -118 -36c-53 0 -105 27 -105 86c0 71 57 120 104 148c36 22 76 36 118 36z" fill="currentColor"/>
</g>
</a>
<g transform="translate(570.5346, 9.8333)">
<rect x="-0.0795" y="-8.8333" width="0.1590" height="8.5902" ry="0.0400" fill="currentColor"/>
</g>
<a style="color:inherit;" xlink:href="textedit://C:/Users/jwloy/Documents/GitHub/ill20240130/public/pieces/ill20240130/notation/ill20240130-beats.ly:80:11:12">
<g transform="translate(590.0000, 9.8333)">
<path transform="scale(0.0049, -0.0049)" d="M222 135c53 0 104 -27 104 -86c0 -71 -56 -120 -103 -148c-36 -22 -76 -36 -118 -36c-53 0 -105 27 -105 86c0 71 57 120 104 148c36 22 76 36 118 36z" fill="currentColor"/>
</g>
</a>
<g transform="translate(591.5346, 9.8333)">
<rect x="-0.0795" y="-8.8333" width="0.1590" height="8.5902" ry="0.0400" fill="currentColor"/>
</g>
<a style="color:inherit;" xlink:href="textedit://C:/Users/jwloy/Documents/GitHub/ill20240130/public/pieces/ill20240130/notation/ill20240130-beats.ly:80:14:15">
<g transform="translate(611.0000, 9.8333)">
<path transform="scale(0.0049, -0.0049)" d="M222 135c53 0 104 -27 104 -86c0 -71 -56 -120 -103 -148c-36 -22 -76 -36 -118 -36c-53 0 -105 27 -105 86c0 71 57 120 104 148c36 22 76 36 118 36z" fill="currentColor"/>
</g>
</a>
<g transform="translate(612.5346, 9.8333)">
<rect x="-0.0795" y="-8.8333" width="0.1590" height="8.5902" ry="0.0400" fill="currentColor"/>
</g>
<a style="color:inherit;" xlink:href="textedit://C:/Users/jwloy/Documents/GitHub/ill20240130/public/pieces/ill20240130/notation/ill20240130-beats.ly:80:17:18">
<g transform="translate(632.0000, 9.8333)">
<path transform="scale(0.0049, -0.0049)" d="M222 135c53 0 104 -27 104 -86c0 -71 -56 -120 -103 -148c-36 -22 -76 -36 -118 -36c-53 0 -105 27 -105 86c0 71 57 120 104 148c36 22 76 36 118 36z" fill="currentColor"/>
</g>
</a>
<g transform="translate(633.5346, 9.8333)">
<rect x="-0.0795" y="-8.8333" width="0.1590" height="8.5902" ry="0.0400" fill="currentColor"/>
</g>
<a style="color:inherit;" xlink:href="textedit://C:/Users/jwloy/Documents/GitHub/ill20240130/public/pieces/ill20240130/notation/ill20240130-beats.ly:80:20:21">
<g transform="translate(653.0000, 9.8333)">
<path transform="scale(0.0049, -0.0049)" d="M222 135c53 0 104 -27 104 -86c0 -71 -56 -120 -103 -148c-36 -22 -76 -36 -118 -36c-53 0 -105 27 -105 86c0 71 57 120 104 148c36 22 76 36 118 36z" fill="currentColor"/>
</g>
</a>
<a style="color:inherit;" xlink:href="textedit://C:/Users/jwloy/Documents/GitHub/ill20240130/public/pieces/ill20240130/notation/ill20240130-beats.ly:77:24:25">
<g transform="translate(107.0000, 9.8333)">
<path transform="scale(0.0049, -0.0049)" d="M222 135c53 0 104 -27 104 -86c0 -71 -56 -120 -103 -148c-36 -22 -76 -36 -118 -36c-53 0 -105 27 -105 86c0 71 57 120 104 148c36 22 76 36 118 36z" fill="currentColor"/>
</g>
</a>
<g transform="translate(108.5346, 9.8333)">
<rect x="-0.0795" y="-8.8333" width="0.1590" height="8.5902" ry="0.0400" fill="currentColor"/>
</g>
<a style="color:inherit;" xlink:href="textedit://C:/Users/jwloy/Documents/GitHub/ill20240130/public/pieces/ill20240130/notation/ill20240130-beats.ly:77:27:28">
<g transform="translate(128.0000, 9.8333)">
<path transform="scale(0.0049, -0.0049)" d="M222 135c53 0 104 -27 104 -86c0 -71 -56 -120 -103 -148c-36 -22 -76 -36 -118 -36c-53 0 -105 27 -105 86c0 71 57 120 104 148c36 22 76 36 118 36z" fill="currentColor"/>
</g>
</a>
<g transform="translate(129.5346, 9.8333)">
<rect x="-0.0795" y="-8.8333" width="0.1590" height="8.5902" ry="0.0400" fill="currentColor"/>
</g>
<a style="color:inherit;" xlink:href="textedit://C:/Users/jwloy/Documents/GitHub/ill20240130/public/pieces/ill20240130/notation/ill20240130-beats.ly:77:30:31">
<g transform="translate(149.0000, 9.8333)">
<path transform="scale(0.0049, -0.0049)" d="M222 135c53 0 104 -27 104 -86c0 -71 -56 -120 -103 -148c-36 -22 -76 -36 -118 -36c-53 0 -105 27 -105 86c0 71 57 120 104 148c36 22 76 36 118 36z" fill="currentColor"/>
</g>
</a>
<g transform="translate(150.5346, 9.8333)">
<rect x="-0.0795" y="-8.8333" width="0.1590" height="8.5902" ry="0.0400" fill="currentColor"/>
</g>
<g transform="translate(66.5346, 9.8333)">
<rect x="-0.0795" y="-8.8333" width="0.1590" height="8.5902" ry="0.0400" fill="currentColor"/>
</g>
<a style="color:inherit;" xlink:href="textedit://C:/Users/jwloy/Documents/GitHub/ill20240130/public/pieces/ill20240130/notation/ill20240130-beats.ly:77:15:16">
<g transform="translate(44.0000, 9.8333)">
<path transform="scale(0.0049, -0.0049)" d="M222 135c53 0 104 -27 104 -86c0 -71 -56 -120 -103 -148c-36 -22 -76 -36 -118 -36c-53 0 -105 27 -105 86c0 71 57 120 104 148c36 22 76 36 118 36z" fill="currentColor"/>
</g>
</a>
<g transform="translate(45.5346, 9.8333)">
<rect x="-0.0795" y="-8.8333" width="0.1590" height="8.5902" ry="0.0400" fill="currentColor"/>
</g>
<g transform="translate(24.5346, 9.8333)">
<rect x="-0.0795" y="-8.8333" width="0.1590" height="8.5902" ry="0.0400" fill="currentColor"/>
</g>
<a style="color:inherit;" xlink:href="textedit://C:/Users/jwloy/Documents/GitHub/ill20240130/public/pieces/ill20240130/notation/ill20240130-beats.ly:77:18:19">
<g transform="translate(65.0000, 9.8333)">
<path transform="scale(0.0049, -0.0049)" d="M222 135c53 0 104 -27 104 -86c0 -71 -56 -120 -103 -148c-36 -22 -76 -36 -118 -36c-53 0 -105 27 -105 86c0 71 57 120 104 148c36 22 76 36 118 36z" fill="currentColor"/>
</g>
</a>
<a style="color:inherit;" xlink:href="textedit://C:/Users/jwloy/Documents/GitHub/ill20240130/public/pieces/ill20240130/notation/ill20240130-beats.ly:77:12:13">
<g transform="translate(23.0000, 9.8333)">
<path transform="scale(0.0049, -0.0049)" d="M222 135c53 0 104 -27 104 -86c0 -71 -56 -120 -103 -148c-36 -22 -76 -36 -118 -36c-53 0 -105 27 -105 86c0 71 57 120 104 148c36 22 76 36 118 36z" fill="currentColor"/>
</g>
</a>
<a style="color:inherit;" xlink:href="textedit://C:/Users/jwloy/Documents/GitHub/ill20240130/public/pieces/ill20240130/notation/ill20240130-beats.ly:77:21:22">
<g transform="translate(86.0000, 9.8333)">
<path transform="scale(0.0049, -0.0049)" d="M222 135c53 0 104 -27 104 -86c0 -71 -56 -120 -103 -148c-36 -22 -76 -36 -118 -36c-53 0 -105 27 -105 86c0 71 57 120 104 148c36 22 76 36 118 36z" fill="currentColor"/>
</g>
</a>
<g transform="translate(87.5346, 9.8333)">
<rect x="-0.0795" y="-8.8333" width="0.1590" height="8.5902" ry="0.0400" fill="currentColor"/>
</g>
<a style="color:inherit;" xlink:href="textedit://C:/Users/jwloy/Documents/GitHub/ill20240130/public/pieces/ill20240130/notation/ill20240130-beats.ly:78:14:15">
<g transform="translate(233.0000, 9.8333)">
<path transform="scale(0.0049, -0.0049)" d="M222 135c53 0 104 -27 104 -86c0 -71 -56 -120 -103 -148c-36 -22 -76 -36 -118 -36c-53 0 -105 27 -105 86c0 71 57 120 104 148c36 22 76 36 118 36z" fill="currentColor"/>
</g>
</a>
<a style="color:inherit;" xlink:href="textedit://C:/Users/jwloy/Documents/GitHub/ill20240130/public/pieces/ill20240130/notation/ill20240130-beats.ly:77:33:34">
<g transform="translate(170.0000, 9.8333)">
<path transform="scale(0.0049, -0.0049)" d="M222 135c53 0 104 -27 104 -86c0 -71 -56 -120 -103 -148c-36 -22 -76 -36 -118 -36c-53 0 -105 27 -105 86c0 71 57 120 104 148c36 22 76 36 118 36z" fill="currentColor"/>
</g>
</a>
<a style="color:inherit;" xlink:href="textedit://C:/Users/jwloy/Documents/GitHub/ill20240130/public/pieces/ill20240130/notation/ill20240130-beats.ly:77:8:9">
<g transform="translate(2.0000, 9.8333)">
<path transform="scale(0.0049, -0.0049)" d="M222 135c53 0 104 -27 104 -86c0 -71 -56 -120 -103 -148c-36 -22 -76 -36 -118 -36c-53 0 -105 27 -105 86c0 71 57 120 104 148c36 22 76 36 118 36z" fill="currentColor"/>
</g>
</a>
<a style="color:inherit;" xlink:href="textedit://C:/Users/jwloy/Documents/GitHub/ill20240130/public/pieces/ill20240130/notation/ill20240130-beats.ly:78:17:18">
<g transform="translate(254.0000, 9.8333)">
<path transform="scale(0.0049, -0.0049)" d="M222 135c53 0 104 -27 104 -86c0 -71 -56 -120 -103 -148c-36 -22 -76 -36 -118 -36c-53 0 -105 27 -105 86c0 71 57 120 104 148c36 22 76 36 118 36z" fill="currentColor"/>
</g>
</a>
<g transform="translate(255.5346, 9.8333)">
<rect x="-0.0795" y="-8.8333" width="0.1590" height="8.5902" ry="0.0400" fill="currentColor"/>
</g>
<g transform="translate(234.5346, 9.8333)">
<rect x="-0.0795" y="-8.8333" width="0.1590" height="8.5902" ry="0.0400" fill="currentColor"/>
</g>
<a style="color:inherit;" xlink:href="textedit://C:/Users/jwloy/Documents/GitHub/ill20240130/public/pieces/ill20240130/notation/ill20240130-beats.ly:78:20:21">
<g transform="translate(275.0000, 9.8333)">
<path transform="scale(0.0049, -0.0049)" d="M222 135c53 0 104 -27 104 -86c0 -71 -56 -120 -103 -148c-36 -22 -76 -36 -118 -36c-53 0 -105 27 -105 86c0 71 57 120 104 148c36 22 76 36 118 36z" fill="currentColor"/>
</g>
</a>
<g transform="translate(276.5346, 9.8333)">
<rect x="-0.0795" y="-8.8333" width="0.1590" height="8.5902" ry="0.0400" fill="currentColor"/>
</g>
<a style="color:inherit;" xlink:href="textedit://C:/Users/jwloy/Documents/GitHub/ill20240130/public/pieces/ill20240130/notation/ill20240130-beats.ly:78:23:24">
<g transform="translate(296.0000, 9.8333)">
<path transform="scale(0.0049, -0.0049)" d="M222 135c53 0 104 -27 104 -86c0 -71 -56 -120 -103 -148c-36 -22 -76 -36 -118 -36c-53 0 -105 27 -105 86c0 71 57 120 104 148c36 22 76 36 118 36z" fill="currentColor"/>
</g>
</a>
<g transform="translate(297.5346, 9.8333)">
<rect x="-0.0795" y="-8.8333" width="0.1590" height="8.5902" ry="0.0400" fill="currentColor"/>
</g>
<g transform="translate(171.5346, 9.8333)">
<rect x="-0.0795" y="-8.8333" width="0.1590" height="8.5902" ry="0.0400" fill="currentColor"/>
</g>
<a style="color:inherit;" xlink:href="textedit://C:/Users/jwloy/Documents/GitHub/ill20240130/public/pieces/ill20240130/notation/ill20240130-beats.ly:78:8:9">
<g transform="translate(191.0000, 9.8333)">
<path transform="scale(0.0049, -0.0049)" d="M222 135c53 0 104 -27 104 -86c0 -71 -56 -120 -103 -148c-36 -22 -76 -36 -118 -36c-53 0 -105 27 -105 86c0 71 57 120 104 148c36 22 76 36 118 36z" fill="currentColor"/>
</g>
</a>
<g transform="translate(192.5346, 9.8333)">
<rect x="-0.0795" y="-8.8333" width="0.1590" height="8.5902" ry="0.0400" fill="currentColor"/>
</g>
<g transform="translate(3.5346, 9.8333)">
<rect x="-0.0795" y="-8.8333" width="0.1590" height="8.5902" ry="0.0400" fill="currentColor"/>
</g>
<a style="color:inherit;" xlink:href="textedit://C:/Users/jwloy/Documents/GitHub/ill20240130/public/pieces/ill20240130/notation/ill20240130-beats.ly:72:8:9">
</a>
<g transform="translate(213.5346, 9.8333)">
<rect x="-0.0795" y="-8.8333" width="0.1590" height="8.5902" ry="0.0400" fill="currentColor"/>
</g>
<a style="color:inherit;" xlink:href="textedit://C:/Users/jwloy/Documents/GitHub/ill20240130/public/pieces/ill20240130/notation/ill20240130-beats.ly:78:11:12">
<g transform="translate(212.0000, 9.8333)">
<path transform="scale(0.0049, -0.0049)" d="M222 135c53 0 104 -27 104 -86c0 -71 -56 -120 -103 -148c-36 -22 -76 -36 -118 -36c-53 0 -105 27 -105 86c0 71 57 120 104 148c36 22 76 36 118 36z" fill="currentColor"/>
</g>
</a>
</svg>
