<?xml version="1.0" encoding="UTF-8" standalone="no"?>
<svg
   xmlns:dc="http://purl.org/dc/elements/1.1/"
   xmlns:cc="http://creativecommons.org/ns#"
   xmlns:rdf="http://www.w3.org/1999/02/22-rdf-syntax-ns#"
   xmlns:svg="http://www.w3.org/2000/svg"
   xmlns="http://www.w3.org/2000/svg"
   xmlns:xlink="http://www.w3.org/1999/xlink"
   xmlns:sodipodi="http://sodipodi.sourceforge.net/DTD/sodipodi-0.dtd"
   xmlns:inkscape="http://www.inkscape.org/namespaces/inkscape"
   version="1.2"
   width="2844.0002"
   height="66.498337"
   viewBox="0 0 428.19977 10.012159"
   id="svg240"
   sodipodi:docname="ly_2024-01-30_12btPerLine_948pxWide_3Lines_79pxPerBt_inkscape.svg"
   inkscape:version="1.0 (4035a4f, 2020-05-01)">
  <metadata
     id="metadata246">
    <rdf:RDF>
      <cc:Work
         rdf:about="">
        <dc:format>image/svg+xml</dc:format>
        <dc:type
           rdf:resource="http://purl.org/dc/dcmitype/StillImage" />
        <dc:title></dc:title>
      </cc:Work>
    </rdf:RDF>
  </metadata>
  <defs
     id="defs244" />
  <sodipodi:namedview
     inkscape:document-rotation="0"
     pagecolor="#ffffff"
     bordercolor="#666666"
     borderopacity="1"
     objecttolerance="10"
     gridtolerance="10"
     guidetolerance="10"
     inkscape:pageopacity="0"
     inkscape:pageshadow="2"
     inkscape:window-width="2150"
     inkscape:window-height="878"
     id="namedview242"
     showgrid="false"
     showguides="true"
     inkscape:guide-bbox="true"
     fit-margin-top="0"
     fit-margin-left="0"
     fit-margin-right="0"
     fit-margin-bottom="0"
     units="px"
     inkscape:zoom="0.67139865"
     inkscape:cx="1227.1995"
     inkscape:cy="47.983755"
     inkscape:window-x="0"
     inkscape:window-y="0"
     inkscape:window-maximized="0"
     inkscape:current-layer="svg240">
    <sodipodi:guide
       position="755.99919,-5.6320249"
       orientation="1,0"
       id="guide248" />
  </sodipodi:namedview>
  <style
     text="style/css"
     id="style10"><![CDATA[
tspan { white-space: pre; }
]]></style>
  <!-- Page: 1/1 -->
  <g
     id="g366"
     transform="matrix(0.56640245,0,0,0.56640245,-1.1328049,-0.56640266)">
    <text
       id="text14"
       fill="currentColor"
       text-anchor="start"
       font-size="2.2001px"
       font-family="serif"><tspan
         id="tspan12" /></text>
    <a
       id="a18"
       xlink:href="textedit:///Users/jwy/Documents/OPUS/GitHub/ill20240130/public/pieces/ill20240130/notation/ly_2024-01-30_12btPerLine_948pxWide_3Lines_79pxPerBt.ly:75:75:76"
       style="color:inherit">
      <path
         id="path16"
         fill="currentColor"
         d="m 222,135 c 53,0 104,-27 104,-86 0,-71 -56,-120 -103,-148 -36,-22 -76,-36 -118,-36 -53,0 -105,27 -105,86 0,71 57,120 104,148 36,22 76,36 118,36 z"
         transform="matrix(0.0049,0,0,-0.0049,464,9.8333)" />
    </a>
    <rect
       id="rect20"
       fill="currentColor"
       ry="0.039999999"
       height="8.5902004"
       width="0.15899999"
       y="-8.8332996"
       x="-0.079499997"
       transform="translate(465.5346,9.8333)" />
    <a
       id="a24"
       xlink:href="textedit:///Users/jwy/Documents/OPUS/GitHub/ill20240130/public/pieces/ill20240130/notation/ly_2024-01-30_12btPerLine_948pxWide_3Lines_79pxPerBt.ly:75:8:9"
       style="color:inherit">
      <path
         id="path22"
         fill="currentColor"
         d="m 222,135 c 53,0 104,-27 104,-86 0,-71 -56,-120 -103,-148 -36,-22 -76,-36 -118,-36 -53,0 -105,27 -105,86 0,71 57,120 104,148 36,22 76,36 118,36 z"
         transform="matrix(0.0049,0,0,-0.0049,2,9.8333)" />
    </a>
    <a
       id="a28"
       xlink:href="textedit:///Users/jwy/Documents/OPUS/GitHub/ill20240130/public/pieces/ill20240130/notation/ly_2024-01-30_12btPerLine_948pxWide_3Lines_79pxPerBt.ly:75:78:79"
       style="color:inherit">
      <path
         id="path26"
         fill="currentColor"
         d="m 222,135 c 53,0 104,-27 104,-86 0,-71 -56,-120 -103,-148 -36,-22 -76,-36 -118,-36 -53,0 -105,27 -105,86 0,71 57,120 104,148 36,22 76,36 118,36 z"
         transform="matrix(0.0049,0,0,-0.0049,485,9.8333)" />
    </a>
    <rect
       id="rect30"
       fill="currentColor"
       ry="0.039999999"
       height="8.5902004"
       width="0.15899999"
       y="-8.8332996"
       x="-0.079499997"
       transform="translate(486.5346,9.8333)" />
    <a
       id="a34"
       xlink:href="textedit:///Users/jwy/Documents/OPUS/GitHub/ill20240130/public/pieces/ill20240130/notation/ly_2024-01-30_12btPerLine_948pxWide_3Lines_79pxPerBt.ly:75:81:82"
       style="color:inherit">
      <path
         id="path32"
         fill="currentColor"
         d="m 222,135 c 53,0 104,-27 104,-86 0,-71 -56,-120 -103,-148 -36,-22 -76,-36 -118,-36 -53,0 -105,27 -105,86 0,71 57,120 104,148 36,22 76,36 118,36 z"
         transform="matrix(0.0049,0,0,-0.0049,506,9.8333)" />
    </a>
    <rect
       id="rect36"
       fill="currentColor"
       ry="0.039999999"
       height="8.5902004"
       width="0.15899999"
       y="-8.8332996"
       x="-0.079499997"
       transform="translate(507.5346,9.8333)" />
    <a
       id="a40"
       xlink:href="textedit:///Users/jwy/Documents/OPUS/GitHub/ill20240130/public/pieces/ill20240130/notation/ly_2024-01-30_12btPerLine_948pxWide_3Lines_79pxPerBt.ly:75:15:16"
       style="color:inherit">
      <path
         id="path38"
         fill="currentColor"
         d="m 222,135 c 53,0 104,-27 104,-86 0,-71 -56,-120 -103,-148 -36,-22 -76,-36 -118,-36 -53,0 -105,27 -105,86 0,71 57,120 104,148 36,22 76,36 118,36 z"
         transform="matrix(0.0049,0,0,-0.0049,44,9.8333)" />
    </a>
    <a
       id="a44"
       xlink:href="textedit:///Users/jwy/Documents/OPUS/GitHub/ill20240130/public/pieces/ill20240130/notation/ly_2024-01-30_12btPerLine_948pxWide_3Lines_79pxPerBt.ly:75:84:85"
       style="color:inherit">
      <path
         id="path42"
         fill="currentColor"
         d="m 222,135 c 53,0 104,-27 104,-86 0,-71 -56,-120 -103,-148 -36,-22 -76,-36 -118,-36 -53,0 -105,27 -105,86 0,71 57,120 104,148 36,22 76,36 118,36 z"
         transform="matrix(0.0049,0,0,-0.0049,527,9.8333)" />
    </a>
    <rect
       id="rect46"
       fill="currentColor"
       ry="0.039999999"
       height="8.5902004"
       width="0.15899999"
       y="-8.8332996"
       x="-0.079499997"
       transform="translate(528.5346,9.8333)" />
    <rect
       id="rect48"
       fill="currentColor"
       ry="0.039999999"
       height="8.5902004"
       width="0.15899999"
       y="-8.8332996"
       x="-0.079499997"
       transform="translate(45.5346,9.8333)" />
    <a
       id="a52"
       xlink:href="textedit:///Users/jwy/Documents/OPUS/GitHub/ill20240130/public/pieces/ill20240130/notation/ly_2024-01-30_12btPerLine_948pxWide_3Lines_79pxPerBt.ly:75:87:88"
       style="color:inherit">
      <path
         id="path50"
         fill="currentColor"
         d="m 222,135 c 53,0 104,-27 104,-86 0,-71 -56,-120 -103,-148 -36,-22 -76,-36 -118,-36 -53,0 -105,27 -105,86 0,71 57,120 104,148 36,22 76,36 118,36 z"
         transform="matrix(0.0049,0,0,-0.0049,548,9.8333)" />
    </a>
    <rect
       id="rect54"
       fill="currentColor"
       ry="0.039999999"
       height="8.5902004"
       width="0.15899999"
       y="-8.8332996"
       x="-0.079499997"
       transform="translate(549.5346,9.8333)" />
    <a
       id="a58"
       xlink:href="textedit:///Users/jwy/Documents/OPUS/GitHub/ill20240130/public/pieces/ill20240130/notation/ly_2024-01-30_12btPerLine_948pxWide_3Lines_79pxPerBt.ly:75:12:13"
       style="color:inherit">
      <path
         id="path56"
         fill="currentColor"
         d="m 222,135 c 53,0 104,-27 104,-86 0,-71 -56,-120 -103,-148 -36,-22 -76,-36 -118,-36 -53,0 -105,27 -105,86 0,71 57,120 104,148 36,22 76,36 118,36 z"
         transform="matrix(0.0049,0,0,-0.0049,23,9.8333)" />
    </a>
    <a
       id="a62"
       xlink:href="textedit:///Users/jwy/Documents/OPUS/GitHub/ill20240130/public/pieces/ill20240130/notation/ly_2024-01-30_12btPerLine_948pxWide_3Lines_79pxPerBt.ly:75:63:64"
       style="color:inherit">
      <path
         id="path60"
         fill="currentColor"
         d="m 222,135 c 53,0 104,-27 104,-86 0,-71 -56,-120 -103,-148 -36,-22 -76,-36 -118,-36 -53,0 -105,27 -105,86 0,71 57,120 104,148 36,22 76,36 118,36 z"
         transform="matrix(0.0049,0,0,-0.0049,380,9.8333)" />
    </a>
    <rect
       id="rect64"
       fill="currentColor"
       ry="0.039999999"
       height="8.5902004"
       width="0.15899999"
       y="-8.8332996"
       x="-0.079499997"
       transform="translate(381.5346,9.8333)" />
    <rect
       id="rect66"
       fill="currentColor"
       ry="0.039999999"
       height="8.5902004"
       width="0.15899999"
       y="-8.8332996"
       x="-0.079499997"
       transform="translate(24.5346,9.8333)" />
    <a
       id="a70"
       xlink:href="textedit:///Users/jwy/Documents/OPUS/GitHub/ill20240130/public/pieces/ill20240130/notation/ly_2024-01-30_12btPerLine_948pxWide_3Lines_79pxPerBt.ly:75:66:67"
       style="color:inherit">
      <path
         id="path68"
         fill="currentColor"
         d="m 222,135 c 53,0 104,-27 104,-86 0,-71 -56,-120 -103,-148 -36,-22 -76,-36 -118,-36 -53,0 -105,27 -105,86 0,71 57,120 104,148 36,22 76,36 118,36 z"
         transform="matrix(0.0049,0,0,-0.0049,401,9.8333)" />
    </a>
    <rect
       id="rect72"
       fill="currentColor"
       ry="0.039999999"
       height="8.5902004"
       width="0.15899999"
       y="-8.8332996"
       x="-0.079499997"
       transform="translate(402.5346,9.8333)" />
    <a
       id="a76"
       xlink:href="textedit:///Users/jwy/Documents/OPUS/GitHub/ill20240130/public/pieces/ill20240130/notation/ly_2024-01-30_12btPerLine_948pxWide_3Lines_79pxPerBt.ly:75:69:70"
       style="color:inherit">
      <path
         id="path74"
         fill="currentColor"
         d="m 222,135 c 53,0 104,-27 104,-86 0,-71 -56,-120 -103,-148 -36,-22 -76,-36 -118,-36 -53,0 -105,27 -105,86 0,71 57,120 104,148 36,22 76,36 118,36 z"
         transform="matrix(0.0049,0,0,-0.0049,422,9.8333)" />
    </a>
    <rect
       id="rect78"
       fill="currentColor"
       ry="0.039999999"
       height="8.5902004"
       width="0.15899999"
       y="-8.8332996"
       x="-0.079499997"
       transform="translate(423.5346,9.8333)" />
    <a
       id="a82"
       xlink:href="textedit:///Users/jwy/Documents/OPUS/GitHub/ill20240130/public/pieces/ill20240130/notation/ly_2024-01-30_12btPerLine_948pxWide_3Lines_79pxPerBt.ly:75:72:73"
       style="color:inherit">
      <path
         id="path80"
         fill="currentColor"
         d="m 222,135 c 53,0 104,-27 104,-86 0,-71 -56,-120 -103,-148 -36,-22 -76,-36 -118,-36 -53,0 -105,27 -105,86 0,71 57,120 104,148 36,22 76,36 118,36 z"
         transform="matrix(0.0049,0,0,-0.0049,443,9.8333)" />
    </a>
    <rect
       id="rect84"
       fill="currentColor"
       ry="0.039999999"
       height="8.5902004"
       width="0.15899999"
       y="-8.8332996"
       x="-0.079499997"
       transform="translate(444.5346,9.8333)" />
    <rect
       id="rect86"
       fill="currentColor"
       ry="0.039999999"
       height="8.5902004"
       width="0.15899999"
       y="-8.8332996"
       x="-0.079499997"
       transform="translate(717.5346,9.8333)" />
    <a
       id="a90"
       xlink:href="textedit:///Users/jwy/Documents/OPUS/GitHub/ill20240130/public/pieces/ill20240130/notation/ly_2024-01-30_12btPerLine_948pxWide_3Lines_79pxPerBt.ly:75:105:106"
       style="color:inherit">
      <path
         id="path88"
         fill="currentColor"
         d="m 222,135 c 53,0 104,-27 104,-86 0,-71 -56,-120 -103,-148 -36,-22 -76,-36 -118,-36 -53,0 -105,27 -105,86 0,71 57,120 104,148 36,22 76,36 118,36 z"
         transform="matrix(0.0049,0,0,-0.0049,674,9.8333)" />
    </a>
    <rect
       id="rect92"
       fill="currentColor"
       ry="0.039999999"
       height="8.5902004"
       width="0.15899999"
       y="-8.8332996"
       x="-0.079499997"
       transform="translate(675.5346,9.8333)" />
    <rect
       id="rect94"
       fill="currentColor"
       ry="0.039999999"
       height="8.5902004"
       width="0.15899999"
       y="-8.8332996"
       x="-0.079499997"
       transform="translate(66.5346,9.8333)" />
    <a
       id="a98"
       xlink:href="textedit:///Users/jwy/Documents/OPUS/GitHub/ill20240130/public/pieces/ill20240130/notation/ly_2024-01-30_12btPerLine_948pxWide_3Lines_79pxPerBt.ly:75:108:109"
       style="color:inherit">
      <path
         id="path96"
         fill="currentColor"
         d="m 222,135 c 53,0 104,-27 104,-86 0,-71 -56,-120 -103,-148 -36,-22 -76,-36 -118,-36 -53,0 -105,27 -105,86 0,71 57,120 104,148 36,22 76,36 118,36 z"
         transform="matrix(0.0049,0,0,-0.0049,695,9.8333)" />
    </a>
    <rect
       id="rect100"
       fill="currentColor"
       ry="0.039999999"
       height="8.5902004"
       width="0.15899999"
       y="-8.8332996"
       x="-0.079499997"
       transform="translate(696.5346,9.8333)" />
    <a
       id="a104"
       xlink:href="textedit:///Users/jwy/Documents/OPUS/GitHub/ill20240130/public/pieces/ill20240130/notation/ly_2024-01-30_12btPerLine_948pxWide_3Lines_79pxPerBt.ly:75:111:112"
       style="color:inherit">
      <path
         id="path102"
         fill="currentColor"
         d="m 222,135 c 53,0 104,-27 104,-86 0,-71 -56,-120 -103,-148 -36,-22 -76,-36 -118,-36 -53,0 -105,27 -105,86 0,71 57,120 104,148 36,22 76,36 118,36 z"
         transform="matrix(0.0049,0,0,-0.0049,716,9.8333)" />
    </a>
    <a
       id="a108"
       xlink:href="textedit:///Users/jwy/Documents/OPUS/GitHub/ill20240130/public/pieces/ill20240130/notation/ly_2024-01-30_12btPerLine_948pxWide_3Lines_79pxPerBt.ly:75:18:19"
       style="color:inherit">
      <path
         id="path106"
         fill="currentColor"
         d="m 222,135 c 53,0 104,-27 104,-86 0,-71 -56,-120 -103,-148 -36,-22 -76,-36 -118,-36 -53,0 -105,27 -105,86 0,71 57,120 104,148 36,22 76,36 118,36 z"
         transform="matrix(0.0049,0,0,-0.0049,65,9.8333)" />
    </a>
    <a
       id="a112"
       xlink:href="textedit:///Users/jwy/Documents/OPUS/GitHub/ill20240130/public/pieces/ill20240130/notation/ly_2024-01-30_12btPerLine_948pxWide_3Lines_79pxPerBt.ly:75:114:115"
       style="color:inherit">
      <path
         id="path110"
         fill="currentColor"
         d="m 222,135 c 53,0 104,-27 104,-86 0,-71 -56,-120 -103,-148 -36,-22 -76,-36 -118,-36 -53,0 -105,27 -105,86 0,71 57,120 104,148 36,22 76,36 118,36 z"
         transform="matrix(0.0049,0,0,-0.0049,737,9.8333)" />
    </a>
    <rect
       id="rect114"
       fill="currentColor"
       ry="0.039999999"
       height="8.5902004"
       width="0.15899999"
       y="-8.8332996"
       x="-0.079499997"
       transform="translate(738.5346,9.8333)" />
    <rect
       id="rect120"
       fill="currentColor"
       ry="0.039999999"
       height="8.5902004"
       width="0.15899999"
       y="10.086555"
       x="757.84027" />
    <rect
       id="rect122"
       fill="currentColor"
       ry="0.039999999"
       height="8.5902004"
       width="0.15899999"
       y="-8.8332996"
       x="-0.079499997"
       transform="translate(612.5346,9.8333)" />
    <a
       id="a126"
       xlink:href="textedit:///Users/jwy/Documents/OPUS/GitHub/ill20240130/public/pieces/ill20240130/notation/ly_2024-01-30_12btPerLine_948pxWide_3Lines_79pxPerBt.ly:75:90:91"
       style="color:inherit">
      <path
         id="path124"
         fill="currentColor"
         d="m 222,135 c 53,0 104,-27 104,-86 0,-71 -56,-120 -103,-148 -36,-22 -76,-36 -118,-36 -53,0 -105,27 -105,86 0,71 57,120 104,148 36,22 76,36 118,36 z"
         transform="matrix(0.0049,0,0,-0.0049,569,9.8333)" />
    </a>
    <rect
       id="rect128"
       fill="currentColor"
       ry="0.039999999"
       height="8.5902004"
       width="0.15899999"
       y="-8.8332996"
       x="-0.079499997"
       transform="translate(570.5346,9.8333)" />
    <a
       id="a132"
       xlink:href="textedit:///Users/jwy/Documents/OPUS/GitHub/ill20240130/public/pieces/ill20240130/notation/ly_2024-01-30_12btPerLine_948pxWide_3Lines_79pxPerBt.ly:75:93:94"
       style="color:inherit">
      <path
         id="path130"
         fill="currentColor"
         d="m 222,135 c 53,0 104,-27 104,-86 0,-71 -56,-120 -103,-148 -36,-22 -76,-36 -118,-36 -53,0 -105,27 -105,86 0,71 57,120 104,148 36,22 76,36 118,36 z"
         transform="matrix(0.0049,0,0,-0.0049,590,9.8333)" />
    </a>
    <rect
       id="rect134"
       fill="currentColor"
       ry="0.039999999"
       height="8.5902004"
       width="0.15899999"
       y="-8.8332996"
       x="-0.079499997"
       transform="translate(591.5346,9.8333)" />
    <a
       id="a138"
       xlink:href="textedit:///Users/jwy/Documents/OPUS/GitHub/ill20240130/public/pieces/ill20240130/notation/ly_2024-01-30_12btPerLine_948pxWide_3Lines_79pxPerBt.ly:75:96:97"
       style="color:inherit">
      <path
         id="path136"
         fill="currentColor"
         d="m 222,135 c 53,0 104,-27 104,-86 0,-71 -56,-120 -103,-148 -36,-22 -76,-36 -118,-36 -53,0 -105,27 -105,86 0,71 57,120 104,148 36,22 76,36 118,36 z"
         transform="matrix(0.0049,0,0,-0.0049,611,9.8333)" />
    </a>
    <a
       id="a142"
       xlink:href="textedit:///Users/jwy/Documents/OPUS/GitHub/ill20240130/public/pieces/ill20240130/notation/ly_2024-01-30_12btPerLine_948pxWide_3Lines_79pxPerBt.ly:75:99:100"
       style="color:inherit">
      <path
         id="path140"
         fill="currentColor"
         d="m 222,135 c 53,0 104,-27 104,-86 0,-71 -56,-120 -103,-148 -36,-22 -76,-36 -118,-36 -53,0 -105,27 -105,86 0,71 57,120 104,148 36,22 76,36 118,36 z"
         transform="matrix(0.0049,0,0,-0.0049,632,9.8333)" />
    </a>
    <rect
       id="rect144"
       fill="currentColor"
       ry="0.039999999"
       height="8.5902004"
       width="0.15899999"
       y="-8.8332996"
       x="-0.079499997"
       transform="translate(633.5346,9.8333)" />
    <a
       id="a148"
       xlink:href="textedit:///Users/jwy/Documents/OPUS/GitHub/ill20240130/public/pieces/ill20240130/notation/ly_2024-01-30_12btPerLine_948pxWide_3Lines_79pxPerBt.ly:75:102:103"
       style="color:inherit">
      <path
         id="path146"
         fill="currentColor"
         d="m 222,135 c 53,0 104,-27 104,-86 0,-71 -56,-120 -103,-148 -36,-22 -76,-36 -118,-36 -53,0 -105,27 -105,86 0,71 57,120 104,148 36,22 76,36 118,36 z"
         transform="matrix(0.0049,0,0,-0.0049,653,9.8333)" />
    </a>
    <rect
       id="rect150"
       fill="currentColor"
       ry="0.039999999"
       height="8.5902004"
       width="0.15899999"
       y="-8.8332996"
       x="-0.079499997"
       transform="translate(654.5346,9.8333)" />
    <rect
       id="rect152"
       fill="currentColor"
       ry="0.039999999"
       height="8.5902004"
       width="0.15899999"
       y="-8.8332996"
       x="-0.079499997"
       transform="translate(150.5346,9.8333)" />
    <rect
       id="rect154"
       fill="currentColor"
       ry="0.039999999"
       height="8.5902004"
       width="0.15899999"
       y="-8.8332996"
       x="-0.079499997"
       transform="translate(108.5346,9.8333)" />
    <rect
       id="rect156"
       fill="currentColor"
       ry="0.039999999"
       height="8.5902004"
       width="0.15899999"
       y="-8.8332996"
       x="-0.079499997"
       transform="translate(3.5346,9.8333)" />
    <a
       id="a160"
       xlink:href="textedit:///Users/jwy/Documents/OPUS/GitHub/ill20240130/public/pieces/ill20240130/notation/ly_2024-01-30_12btPerLine_948pxWide_3Lines_79pxPerBt.ly:75:27:28"
       style="color:inherit">
      <path
         id="path158"
         fill="currentColor"
         d="m 222,135 c 53,0 104,-27 104,-86 0,-71 -56,-120 -103,-148 -36,-22 -76,-36 -118,-36 -53,0 -105,27 -105,86 0,71 57,120 104,148 36,22 76,36 118,36 z"
         transform="matrix(0.0049,0,0,-0.0049,128,9.8333)" />
    </a>
    <rect
       id="rect162"
       fill="currentColor"
       ry="0.039999999"
       height="8.5902004"
       width="0.15899999"
       y="-8.8332996"
       x="-0.079499997"
       transform="translate(129.5346,9.8333)" />
    <a
       id="a166"
       xlink:href="textedit:///Users/jwy/Documents/OPUS/GitHub/ill20240130/public/pieces/ill20240130/notation/ly_2024-01-30_12btPerLine_948pxWide_3Lines_79pxPerBt.ly:75:30:31"
       style="color:inherit">
      <path
         id="path164"
         fill="currentColor"
         d="m 222,135 c 53,0 104,-27 104,-86 0,-71 -56,-120 -103,-148 -36,-22 -76,-36 -118,-36 -53,0 -105,27 -105,86 0,71 57,120 104,148 36,22 76,36 118,36 z"
         transform="matrix(0.0049,0,0,-0.0049,149,9.8333)" />
    </a>
    <a
       id="a170"
       xlink:href="textedit:///Users/jwy/Documents/OPUS/GitHub/ill20240130/public/pieces/ill20240130/notation/ly_2024-01-30_12btPerLine_948pxWide_3Lines_79pxPerBt.ly:75:24:25"
       style="color:inherit">
      <path
         id="path168"
         fill="currentColor"
         d="m 222,135 c 53,0 104,-27 104,-86 0,-71 -56,-120 -103,-148 -36,-22 -76,-36 -118,-36 -53,0 -105,27 -105,86 0,71 57,120 104,148 36,22 76,36 118,36 z"
         transform="matrix(0.0049,0,0,-0.0049,107,9.8333)" />
    </a>
    <a
       id="a174"
       xlink:href="textedit:///Users/jwy/Documents/OPUS/GitHub/ill20240130/public/pieces/ill20240130/notation/ly_2024-01-30_12btPerLine_948pxWide_3Lines_79pxPerBt.ly:75:33:34"
       style="color:inherit">
      <path
         id="path172"
         fill="currentColor"
         d="m 222,135 c 53,0 104,-27 104,-86 0,-71 -56,-120 -103,-148 -36,-22 -76,-36 -118,-36 -53,0 -105,27 -105,86 0,71 57,120 104,148 36,22 76,36 118,36 z"
         transform="matrix(0.0049,0,0,-0.0049,170,9.8333)" />
    </a>
    <rect
       id="rect176"
       fill="currentColor"
       ry="0.039999999"
       height="8.5902004"
       width="0.15899999"
       y="-8.8332996"
       x="-0.079499997"
       transform="translate(360.5346,9.8333)" />
    <a
       id="a180"
       xlink:href="textedit:///Users/jwy/Documents/OPUS/GitHub/ill20240130/public/pieces/ill20240130/notation/ly_2024-01-30_12btPerLine_948pxWide_3Lines_79pxPerBt.ly:75:36:37"
       style="color:inherit">
      <path
         id="path178"
         fill="currentColor"
         d="m 222,135 c 53,0 104,-27 104,-86 0,-71 -56,-120 -103,-148 -36,-22 -76,-36 -118,-36 -53,0 -105,27 -105,86 0,71 57,120 104,148 36,22 76,36 118,36 z"
         transform="matrix(0.0049,0,0,-0.0049,191,9.8333)" />
    </a>
    <rect
       id="rect182"
       fill="currentColor"
       ry="0.039999999"
       height="8.5902004"
       width="0.15899999"
       y="-8.8332996"
       x="-0.079499997"
       transform="translate(192.5346,9.8333)" />
    <rect
       id="rect184"
       fill="currentColor"
       ry="0.039999999"
       height="8.5902004"
       width="0.15899999"
       y="-8.8332996"
       x="-0.079499997"
       transform="translate(171.5346,9.8333)" />
    <a
       id="a188"
       xlink:href="textedit:///Users/jwy/Documents/OPUS/GitHub/ill20240130/public/pieces/ill20240130/notation/ly_2024-01-30_12btPerLine_948pxWide_3Lines_79pxPerBt.ly:75:21:22"
       style="color:inherit">
      <path
         id="path186"
         fill="currentColor"
         d="m 222,135 c 53,0 104,-27 104,-86 0,-71 -56,-120 -103,-148 -36,-22 -76,-36 -118,-36 -53,0 -105,27 -105,86 0,71 57,120 104,148 36,22 76,36 118,36 z"
         transform="matrix(0.0049,0,0,-0.0049,86,9.8333)" />
    </a>
    <rect
       id="rect190"
       fill="currentColor"
       ry="0.039999999"
       height="8.5902004"
       width="0.15899999"
       y="-8.8332996"
       x="-0.079499997"
       transform="translate(87.5346,9.8333)" />
    <a
       id="a192"
       xlink:href="textedit:///Users/jwy/Documents/OPUS/GitHub/ill20240130/public/pieces/ill20240130/notation/ly_2024-01-30_12btPerLine_948pxWide_3Lines_79pxPerBt.ly:72:8:9"
       style="color:inherit" />
    <rect
       id="rect194"
       fill="currentColor"
       ry="0.039999999"
       height="8.5902004"
       width="0.15899999"
       y="-8.8332996"
       x="-0.079499997"
       transform="translate(255.5346,9.8333)" />
    <a
       id="a198"
       xlink:href="textedit:///Users/jwy/Documents/OPUS/GitHub/ill20240130/public/pieces/ill20240130/notation/ly_2024-01-30_12btPerLine_948pxWide_3Lines_79pxPerBt.ly:75:48:49"
       style="color:inherit">
      <path
         id="path196"
         fill="currentColor"
         d="m 222,135 c 53,0 104,-27 104,-86 0,-71 -56,-120 -103,-148 -36,-22 -76,-36 -118,-36 -53,0 -105,27 -105,86 0,71 57,120 104,148 36,22 76,36 118,36 z"
         transform="matrix(0.0049,0,0,-0.0049,275,9.8333)" />
    </a>
    <rect
       id="rect200"
       fill="currentColor"
       ry="0.039999999"
       height="8.5902004"
       width="0.15899999"
       y="-8.8332996"
       x="-0.079499997"
       transform="translate(276.5346,9.8333)" />
    <a
       id="a204"
       xlink:href="textedit:///Users/jwy/Documents/OPUS/GitHub/ill20240130/public/pieces/ill20240130/notation/ly_2024-01-30_12btPerLine_948pxWide_3Lines_79pxPerBt.ly:75:51:52"
       style="color:inherit">
      <path
         id="path202"
         fill="currentColor"
         d="m 222,135 c 53,0 104,-27 104,-86 0,-71 -56,-120 -103,-148 -36,-22 -76,-36 -118,-36 -53,0 -105,27 -105,86 0,71 57,120 104,148 36,22 76,36 118,36 z"
         transform="matrix(0.0049,0,0,-0.0049,296,9.8333)" />
    </a>
    <rect
       id="rect206"
       fill="currentColor"
       ry="0.039999999"
       height="8.5902004"
       width="0.15899999"
       y="-8.8332996"
       x="-0.079499997"
       transform="translate(297.5346,9.8333)" />
    <a
       id="a210"
       xlink:href="textedit:///Users/jwy/Documents/OPUS/GitHub/ill20240130/public/pieces/ill20240130/notation/ly_2024-01-30_12btPerLine_948pxWide_3Lines_79pxPerBt.ly:75:54:55"
       style="color:inherit">
      <path
         id="path208"
         fill="currentColor"
         d="m 222,135 c 53,0 104,-27 104,-86 0,-71 -56,-120 -103,-148 -36,-22 -76,-36 -118,-36 -53,0 -105,27 -105,86 0,71 57,120 104,148 36,22 76,36 118,36 z"
         transform="matrix(0.0049,0,0,-0.0049,317,9.8333)" />
    </a>
    <rect
       id="rect212"
       fill="currentColor"
       ry="0.039999999"
       height="8.5902004"
       width="0.15899999"
       y="-8.8332996"
       x="-0.079499997"
       transform="translate(318.5346,9.8333)" />
    <a
       id="a216"
       xlink:href="textedit:///Users/jwy/Documents/OPUS/GitHub/ill20240130/public/pieces/ill20240130/notation/ly_2024-01-30_12btPerLine_948pxWide_3Lines_79pxPerBt.ly:75:57:58"
       style="color:inherit">
      <path
         id="path214"
         fill="currentColor"
         d="m 222,135 c 53,0 104,-27 104,-86 0,-71 -56,-120 -103,-148 -36,-22 -76,-36 -118,-36 -53,0 -105,27 -105,86 0,71 57,120 104,148 36,22 76,36 118,36 z"
         transform="matrix(0.0049,0,0,-0.0049,338,9.8333)" />
    </a>
    <rect
       id="rect218"
       fill="currentColor"
       ry="0.039999999"
       height="8.5902004"
       width="0.15899999"
       y="-8.8332996"
       x="-0.079499997"
       transform="translate(339.5346,9.8333)" />
    <a
       id="a222"
       xlink:href="textedit:///Users/jwy/Documents/OPUS/GitHub/ill20240130/public/pieces/ill20240130/notation/ly_2024-01-30_12btPerLine_948pxWide_3Lines_79pxPerBt.ly:75:60:61"
       style="color:inherit">
      <path
         id="path220"
         fill="currentColor"
         d="m 222,135 c 53,0 104,-27 104,-86 0,-71 -56,-120 -103,-148 -36,-22 -76,-36 -118,-36 -53,0 -105,27 -105,86 0,71 57,120 104,148 36,22 76,36 118,36 z"
         transform="matrix(0.0049,0,0,-0.0049,359,9.8333)" />
    </a>
    <a
       id="a226"
       xlink:href="textedit:///Users/jwy/Documents/OPUS/GitHub/ill20240130/public/pieces/ill20240130/notation/ly_2024-01-30_12btPerLine_948pxWide_3Lines_79pxPerBt.ly:75:39:40"
       style="color:inherit">
      <path
         id="path224"
         fill="currentColor"
         d="m 222,135 c 53,0 104,-27 104,-86 0,-71 -56,-120 -103,-148 -36,-22 -76,-36 -118,-36 -53,0 -105,27 -105,86 0,71 57,120 104,148 36,22 76,36 118,36 z"
         transform="matrix(0.0049,0,0,-0.0049,212,9.8333)" />
    </a>
    <rect
       id="rect228"
       fill="currentColor"
       ry="0.039999999"
       height="8.5902004"
       width="0.15899999"
       y="-8.8332996"
       x="-0.079499997"
       transform="translate(234.5346,9.8333)" />
    <a
       id="a232"
       xlink:href="textedit:///Users/jwy/Documents/OPUS/GitHub/ill20240130/public/pieces/ill20240130/notation/ly_2024-01-30_12btPerLine_948pxWide_3Lines_79pxPerBt.ly:75:42:43"
       style="color:inherit">
      <path
         id="path230"
         fill="currentColor"
         d="m 222,135 c 53,0 104,-27 104,-86 0,-71 -56,-120 -103,-148 -36,-22 -76,-36 -118,-36 -53,0 -105,27 -105,86 0,71 57,120 104,148 36,22 76,36 118,36 z"
         transform="matrix(0.0049,0,0,-0.0049,233,9.8333)" />
    </a>
    <rect
       id="rect234"
       fill="currentColor"
       ry="0.039999999"
       height="8.5902004"
       width="0.15899999"
       y="-8.8332996"
       x="-0.079499997"
       transform="translate(213.5346,9.8333)" />
    <a
       id="a238"
       xlink:href="textedit:///Users/jwy/Documents/OPUS/GitHub/ill20240130/public/pieces/ill20240130/notation/ly_2024-01-30_12btPerLine_948pxWide_3Lines_79pxPerBt.ly:75:45:46"
       style="color:inherit">
      <path
         id="path236"
         fill="currentColor"
         d="m 222,135 c 53,0 104,-27 104,-86 0,-71 -56,-120 -103,-148 -36,-22 -76,-36 -118,-36 -53,0 -105,27 -105,86 0,71 57,120 104,148 36,22 76,36 118,36 z"
         transform="matrix(0.0049,0,0,-0.0049,254,9.8333)" />
    </a>
  </g>
</svg>
