<?xml version="1.0" encoding="UTF-8" standalone="no"?>
<svg
   version="1.2"
   width="1000.125mm"
   height="13.017803mm"
   viewBox="0 0 569.12624 7.4078503"
   id="svg74"
   xmlns:xlink="http://www.w3.org/1999/xlink"
   xmlns="http://www.w3.org/2000/svg"
   xmlns:svg="http://www.w3.org/2000/svg">
  <defs
     id="defs74" />
  <style
     type="text/css"
     id="style1"><![CDATA[
tspan { white-space: pre; }
]]></style>
  <!-- Page: 1/1 -->
  <g
     id="g75"
     transform="matrix(0.75281395,0,0,0.75281395,-1.5056279,-0.75281422)">
    <a
       style="color:inherit"
       xlink:href="textedit://C:/Users/jwloy/Documents/GitHub/ill20240130/public/pieces/ill20240130/notation/ill20240130-beats.ly:79:17:18"
       id="a1">
      <g
         transform="translate(443,9.8333)"
         id="g1">
        <path
           transform="scale(0.0049,-0.0049)"
           d="m 222,135 c 53,0 104,-27 104,-86 0,-71 -56,-120 -103,-148 -36,-22 -76,-36 -118,-36 -53,0 -105,27 -105,86 0,71 57,120 104,148 36,22 76,36 118,36 z"
           fill="currentColor"
           id="path1" />
      </g>
    </a>
    <g
       transform="translate(444.5346,9.8333)"
       id="g2">
      <rect
         x="-0.079499997"
         y="-8.8332996"
         width="0.15899999"
         height="8.5902004"
         ry="0.039999999"
         fill="currentColor"
         id="rect1" />
    </g>
    <a
       style="color:inherit"
       xlink:href="textedit://C:/Users/jwloy/Documents/GitHub/ill20240130/public/pieces/ill20240130/notation/ill20240130-beats.ly:79:20:21"
       id="a3">
      <g
         transform="translate(464,9.8333)"
         id="g3">
        <path
           transform="scale(0.0049,-0.0049)"
           d="m 222,135 c 53,0 104,-27 104,-86 0,-71 -56,-120 -103,-148 -36,-22 -76,-36 -118,-36 -53,0 -105,27 -105,86 0,71 57,120 104,148 36,22 76,36 118,36 z"
           fill="currentColor"
           id="path2" />
      </g>
    </a>
    <g
       transform="translate(465.5346,9.8333)"
       id="g4">
      <rect
         x="-0.079499997"
         y="-8.8332996"
         width="0.15899999"
         height="8.5902004"
         ry="0.039999999"
         fill="currentColor"
         id="rect3" />
    </g>
    <g
       transform="translate(423.5346,9.8333)"
       id="g5">
      <rect
         x="-0.079499997"
         y="-8.8332996"
         width="0.15899999"
         height="8.5902004"
         ry="0.039999999"
         fill="currentColor"
         id="rect4" />
    </g>
    <a
       style="color:inherit"
       xlink:href="textedit://C:/Users/jwloy/Documents/GitHub/ill20240130/public/pieces/ill20240130/notation/ill20240130-beats.ly:79:23:24"
       id="a6">
      <g
         transform="translate(485,9.8333)"
         id="g6">
        <path
           transform="scale(0.0049,-0.0049)"
           d="m 222,135 c 53,0 104,-27 104,-86 0,-71 -56,-120 -103,-148 -36,-22 -76,-36 -118,-36 -53,0 -105,27 -105,86 0,71 57,120 104,148 36,22 76,36 118,36 z"
           fill="currentColor"
           id="path5" />
      </g>
    </a>
    <g
       transform="translate(486.5346,9.8333)"
       id="g7">
      <rect
         x="-0.079499997"
         y="-8.8332996"
         width="0.15899999"
         height="8.5902004"
         ry="0.039999999"
         fill="currentColor"
         id="rect6" />
    </g>
    <a
       style="color:inherit"
       xlink:href="textedit://C:/Users/jwloy/Documents/GitHub/ill20240130/public/pieces/ill20240130/notation/ill20240130-beats.ly:79:26:27"
       id="a8">
      <g
         transform="translate(506,9.8333)"
         id="g8">
        <path
           transform="scale(0.0049,-0.0049)"
           d="m 222,135 c 53,0 104,-27 104,-86 0,-71 -56,-120 -103,-148 -36,-22 -76,-36 -118,-36 -53,0 -105,27 -105,86 0,71 57,120 104,148 36,22 76,36 118,36 z"
           fill="currentColor"
           id="path7" />
      </g>
    </a>
    <g
       transform="translate(507.5346,9.8333)"
       id="g9">
      <rect
         x="-0.079499997"
         y="-8.8332996"
         width="0.15899999"
         height="8.5902004"
         ry="0.039999999"
         fill="currentColor"
         id="rect8" />
    </g>
    <a
       style="color:inherit"
       xlink:href="textedit://C:/Users/jwloy/Documents/GitHub/ill20240130/public/pieces/ill20240130/notation/ill20240130-beats.ly:79:29:30"
       id="a10">
      <g
         transform="translate(527,9.8333)"
         id="g10">
        <path
           transform="scale(0.0049,-0.0049)"
           d="m 222,135 c 53,0 104,-27 104,-86 0,-71 -56,-120 -103,-148 -36,-22 -76,-36 -118,-36 -53,0 -105,27 -105,86 0,71 57,120 104,148 36,22 76,36 118,36 z"
           fill="currentColor"
           id="path9" />
      </g>
    </a>
    <g
       transform="translate(528.5346,9.8333)"
       id="g11">
      <rect
         x="-0.079499997"
         y="-8.8332996"
         width="0.15899999"
         height="8.5902004"
         ry="0.039999999"
         fill="currentColor"
         id="rect10" />
    </g>
    <a
       style="color:inherit"
       xlink:href="textedit://C:/Users/jwloy/Documents/GitHub/ill20240130/public/pieces/ill20240130/notation/ill20240130-beats.ly:78:26:27"
       id="a12">
      <g
         transform="translate(317,9.8333)"
         id="g12">
        <path
           transform="scale(0.0049,-0.0049)"
           d="m 222,135 c 53,0 104,-27 104,-86 0,-71 -56,-120 -103,-148 -36,-22 -76,-36 -118,-36 -53,0 -105,27 -105,86 0,71 57,120 104,148 36,22 76,36 118,36 z"
           fill="currentColor"
           id="path11" />
      </g>
    </a>
    <g
       transform="translate(318.5346,9.8333)"
       id="g13">
      <rect
         x="-0.079499997"
         y="-8.8332996"
         width="0.15899999"
         height="8.5902004"
         ry="0.039999999"
         fill="currentColor"
         id="rect12" />
    </g>
    <a
       style="color:inherit"
       xlink:href="textedit://C:/Users/jwloy/Documents/GitHub/ill20240130/public/pieces/ill20240130/notation/ill20240130-beats.ly:78:29:30"
       id="a14">
      <g
         transform="translate(338,9.8333)"
         id="g14">
        <path
           transform="scale(0.0049,-0.0049)"
           d="m 222,135 c 53,0 104,-27 104,-86 0,-71 -56,-120 -103,-148 -36,-22 -76,-36 -118,-36 -53,0 -105,27 -105,86 0,71 57,120 104,148 36,22 76,36 118,36 z"
           fill="currentColor"
           id="path13" />
      </g>
    </a>
    <g
       transform="translate(339.5346,9.8333)"
       id="g15">
      <rect
         x="-0.079499997"
         y="-8.8332996"
         width="0.15899999"
         height="8.5902004"
         ry="0.039999999"
         fill="currentColor"
         id="rect14" />
    </g>
    <a
       style="color:inherit"
       xlink:href="textedit://C:/Users/jwloy/Documents/GitHub/ill20240130/public/pieces/ill20240130/notation/ill20240130-beats.ly:78:32:33"
       id="a16">
      <g
         transform="translate(359,9.8333)"
         id="g16">
        <path
           transform="scale(0.0049,-0.0049)"
           d="m 222,135 c 53,0 104,-27 104,-86 0,-71 -56,-120 -103,-148 -36,-22 -76,-36 -118,-36 -53,0 -105,27 -105,86 0,71 57,120 104,148 36,22 76,36 118,36 z"
           fill="currentColor"
           id="path15" />
      </g>
    </a>
    <g
       transform="translate(360.5346,9.8333)"
       id="g17">
      <rect
         x="-0.079499997"
         y="-8.8332996"
         width="0.15899999"
         height="8.5902004"
         ry="0.039999999"
         fill="currentColor"
         id="rect16" />
    </g>
    <a
       style="color:inherit"
       xlink:href="textedit://C:/Users/jwloy/Documents/GitHub/ill20240130/public/pieces/ill20240130/notation/ill20240130-beats.ly:79:8:9"
       id="a18">
      <g
         transform="translate(380,9.8333)"
         id="g18">
        <path
           transform="scale(0.0049,-0.0049)"
           d="m 222,135 c 53,0 104,-27 104,-86 0,-71 -56,-120 -103,-148 -36,-22 -76,-36 -118,-36 -53,0 -105,27 -105,86 0,71 57,120 104,148 36,22 76,36 118,36 z"
           fill="currentColor"
           id="path17" />
      </g>
    </a>
    <g
       transform="translate(381.5346,9.8333)"
       id="g19">
      <rect
         x="-0.079499997"
         y="-8.8332996"
         width="0.15899999"
         height="8.5902004"
         ry="0.039999999"
         fill="currentColor"
         id="rect18" />
    </g>
    <a
       style="color:inherit"
       xlink:href="textedit://C:/Users/jwloy/Documents/GitHub/ill20240130/public/pieces/ill20240130/notation/ill20240130-beats.ly:79:11:12"
       id="a20">
      <g
         transform="translate(401,9.8333)"
         id="g20">
        <path
           transform="scale(0.0049,-0.0049)"
           d="m 222,135 c 53,0 104,-27 104,-86 0,-71 -56,-120 -103,-148 -36,-22 -76,-36 -118,-36 -53,0 -105,27 -105,86 0,71 57,120 104,148 36,22 76,36 118,36 z"
           fill="currentColor"
           id="path19" />
      </g>
    </a>
    <g
       transform="translate(402.5346,9.8333)"
       id="g21">
      <rect
         x="-0.079499997"
         y="-8.8332996"
         width="0.15899999"
         height="8.5902004"
         ry="0.039999999"
         fill="currentColor"
         id="rect20" />
    </g>
    <a
       style="color:inherit"
       xlink:href="textedit://C:/Users/jwloy/Documents/GitHub/ill20240130/public/pieces/ill20240130/notation/ill20240130-beats.ly:79:14:15"
       id="a22">
      <g
         transform="translate(422,9.8333)"
         id="g22">
        <path
           transform="scale(0.0049,-0.0049)"
           d="m 222,135 c 53,0 104,-27 104,-86 0,-71 -56,-120 -103,-148 -36,-22 -76,-36 -118,-36 -53,0 -105,27 -105,86 0,71 57,120 104,148 36,22 76,36 118,36 z"
           fill="currentColor"
           id="path21" />
      </g>
    </a>
    <g
       transform="translate(717.5346,9.8333)"
       id="g23">
      <rect
         x="-0.079499997"
         y="-8.8332996"
         width="0.15899999"
         height="8.5902004"
         ry="0.039999999"
         fill="currentColor"
         id="rect22" />
    </g>
    <a
       style="color:inherit"
       xlink:href="textedit://C:/Users/jwloy/Documents/GitHub/ill20240130/public/pieces/ill20240130/notation/ill20240130-beats.ly:80:23:24"
       id="a24">
      <g
         transform="translate(674,9.8333)"
         id="g24">
        <path
           transform="scale(0.0049,-0.0049)"
           d="m 222,135 c 53,0 104,-27 104,-86 0,-71 -56,-120 -103,-148 -36,-22 -76,-36 -118,-36 -53,0 -105,27 -105,86 0,71 57,120 104,148 36,22 76,36 118,36 z"
           fill="currentColor"
           id="path23" />
      </g>
    </a>
    <g
       transform="translate(675.5346,9.8333)"
       id="g25">
      <rect
         x="-0.079499997"
         y="-8.8332996"
         width="0.15899999"
         height="8.5902004"
         ry="0.039999999"
         fill="currentColor"
         id="rect24" />
    </g>
    <a
       style="color:inherit"
       xlink:href="textedit://C:/Users/jwloy/Documents/GitHub/ill20240130/public/pieces/ill20240130/notation/ill20240130-beats.ly:80:26:27"
       id="a26">
      <g
         transform="translate(695,9.8333)"
         id="g26">
        <path
           transform="scale(0.0049,-0.0049)"
           d="m 222,135 c 53,0 104,-27 104,-86 0,-71 -56,-120 -103,-148 -36,-22 -76,-36 -118,-36 -53,0 -105,27 -105,86 0,71 57,120 104,148 36,22 76,36 118,36 z"
           fill="currentColor"
           id="path25" />
      </g>
    </a>
    <g
       transform="translate(696.5346,9.8333)"
       id="g27">
      <rect
         x="-0.079499997"
         y="-8.8332996"
         width="0.15899999"
         height="8.5902004"
         ry="0.039999999"
         fill="currentColor"
         id="rect26" />
    </g>
    <a
       style="color:inherit"
       xlink:href="textedit://C:/Users/jwloy/Documents/GitHub/ill20240130/public/pieces/ill20240130/notation/ill20240130-beats.ly:80:29:30"
       id="a28">
      <g
         transform="translate(716,9.8333)"
         id="g28">
        <path
           transform="scale(0.0049,-0.0049)"
           d="m 222,135 c 53,0 104,-27 104,-86 0,-71 -56,-120 -103,-148 -36,-22 -76,-36 -118,-36 -53,0 -105,27 -105,86 0,71 57,120 104,148 36,22 76,36 118,36 z"
           fill="currentColor"
           id="path27" />
      </g>
    </a>
    <g
       transform="translate(654.5346,9.8333)"
       id="g29">
      <rect
         x="-0.079499997"
         y="-8.8332996"
         width="0.15899999"
         height="8.5902004"
         ry="0.039999999"
         fill="currentColor"
         id="rect28" />
    </g>
    <a
       style="color:inherit"
       xlink:href="textedit://C:/Users/jwloy/Documents/GitHub/ill20240130/public/pieces/ill20240130/notation/ill20240130-beats.ly:80:32:33"
       id="a30">
      <g
         transform="translate(737,9.8333)"
         id="g30">
        <path
           transform="scale(0.0049,-0.0049)"
           d="m 222,135 c 53,0 104,-27 104,-86 0,-71 -56,-120 -103,-148 -36,-22 -76,-36 -118,-36 -53,0 -105,27 -105,86 0,71 57,120 104,148 36,22 76,36 118,36 z"
           fill="currentColor"
           id="path29" />
      </g>
    </a>
    <g
       transform="translate(738.5346,9.8333)"
       id="g31">
      <rect
         x="-0.079499997"
         y="-8.8332996"
         width="0.15899999"
         height="8.5902004"
         ry="0.039999999"
         fill="currentColor"
         id="rect30" />
    </g>
    <g
       transform="translate(757.91917,2.0068118)"
       id="g33">
      <rect
         x="-0.079499997"
         y="0.2432"
         width="0.15899999"
         height="8.5902004"
         ry="0.039999999"
         fill="currentColor"
         id="rect32" />
    </g>
    <a
       style="color:inherit"
       xlink:href="textedit://C:/Users/jwloy/Documents/GitHub/ill20240130/public/pieces/ill20240130/notation/ill20240130-beats.ly:79:32:33"
       id="a34">
      <g
         transform="translate(548,9.8333)"
         id="g34">
        <path
           transform="scale(0.0049,-0.0049)"
           d="m 222,135 c 53,0 104,-27 104,-86 0,-71 -56,-120 -103,-148 -36,-22 -76,-36 -118,-36 -53,0 -105,27 -105,86 0,71 57,120 104,148 36,22 76,36 118,36 z"
           fill="currentColor"
           id="path33" />
      </g>
    </a>
    <g
       transform="translate(549.5346,9.8333)"
       id="g35">
      <rect
         x="-0.079499997"
         y="-8.8332996"
         width="0.15899999"
         height="8.5902004"
         ry="0.039999999"
         fill="currentColor"
         id="rect34" />
    </g>
    <a
       style="color:inherit"
       xlink:href="textedit://C:/Users/jwloy/Documents/GitHub/ill20240130/public/pieces/ill20240130/notation/ill20240130-beats.ly:80:8:9"
       id="a36">
      <g
         transform="translate(569,9.8333)"
         id="g36">
        <path
           transform="scale(0.0049,-0.0049)"
           d="m 222,135 c 53,0 104,-27 104,-86 0,-71 -56,-120 -103,-148 -36,-22 -76,-36 -118,-36 -53,0 -105,27 -105,86 0,71 57,120 104,148 36,22 76,36 118,36 z"
           fill="currentColor"
           id="path35" />
      </g>
    </a>
    <g
       transform="translate(570.5346,9.8333)"
       id="g37">
      <rect
         x="-0.079499997"
         y="-8.8332996"
         width="0.15899999"
         height="8.5902004"
         ry="0.039999999"
         fill="currentColor"
         id="rect36" />
    </g>
    <a
       style="color:inherit"
       xlink:href="textedit://C:/Users/jwloy/Documents/GitHub/ill20240130/public/pieces/ill20240130/notation/ill20240130-beats.ly:80:11:12"
       id="a38">
      <g
         transform="translate(590,9.8333)"
         id="g38">
        <path
           transform="scale(0.0049,-0.0049)"
           d="m 222,135 c 53,0 104,-27 104,-86 0,-71 -56,-120 -103,-148 -36,-22 -76,-36 -118,-36 -53,0 -105,27 -105,86 0,71 57,120 104,148 36,22 76,36 118,36 z"
           fill="currentColor"
           id="path37" />
      </g>
    </a>
    <g
       transform="translate(591.5346,9.8333)"
       id="g39">
      <rect
         x="-0.079499997"
         y="-8.8332996"
         width="0.15899999"
         height="8.5902004"
         ry="0.039999999"
         fill="currentColor"
         id="rect38" />
    </g>
    <a
       style="color:inherit"
       xlink:href="textedit://C:/Users/jwloy/Documents/GitHub/ill20240130/public/pieces/ill20240130/notation/ill20240130-beats.ly:80:14:15"
       id="a40">
      <g
         transform="translate(611,9.8333)"
         id="g40">
        <path
           transform="scale(0.0049,-0.0049)"
           d="m 222,135 c 53,0 104,-27 104,-86 0,-71 -56,-120 -103,-148 -36,-22 -76,-36 -118,-36 -53,0 -105,27 -105,86 0,71 57,120 104,148 36,22 76,36 118,36 z"
           fill="currentColor"
           id="path39" />
      </g>
    </a>
    <g
       transform="translate(612.5346,9.8333)"
       id="g41">
      <rect
         x="-0.079499997"
         y="-8.8332996"
         width="0.15899999"
         height="8.5902004"
         ry="0.039999999"
         fill="currentColor"
         id="rect40" />
    </g>
    <a
       style="color:inherit"
       xlink:href="textedit://C:/Users/jwloy/Documents/GitHub/ill20240130/public/pieces/ill20240130/notation/ill20240130-beats.ly:80:17:18"
       id="a42">
      <g
         transform="translate(632,9.8333)"
         id="g42">
        <path
           transform="scale(0.0049,-0.0049)"
           d="m 222,135 c 53,0 104,-27 104,-86 0,-71 -56,-120 -103,-148 -36,-22 -76,-36 -118,-36 -53,0 -105,27 -105,86 0,71 57,120 104,148 36,22 76,36 118,36 z"
           fill="currentColor"
           id="path41" />
      </g>
    </a>
    <g
       transform="translate(633.5346,9.8333)"
       id="g43">
      <rect
         x="-0.079499997"
         y="-8.8332996"
         width="0.15899999"
         height="8.5902004"
         ry="0.039999999"
         fill="currentColor"
         id="rect42" />
    </g>
    <a
       style="color:inherit"
       xlink:href="textedit://C:/Users/jwloy/Documents/GitHub/ill20240130/public/pieces/ill20240130/notation/ill20240130-beats.ly:80:20:21"
       id="a44">
      <g
         transform="translate(653,9.8333)"
         id="g44">
        <path
           transform="scale(0.0049,-0.0049)"
           d="m 222,135 c 53,0 104,-27 104,-86 0,-71 -56,-120 -103,-148 -36,-22 -76,-36 -118,-36 -53,0 -105,27 -105,86 0,71 57,120 104,148 36,22 76,36 118,36 z"
           fill="currentColor"
           id="path43" />
      </g>
    </a>
    <a
       style="color:inherit"
       xlink:href="textedit://C:/Users/jwloy/Documents/GitHub/ill20240130/public/pieces/ill20240130/notation/ill20240130-beats.ly:77:24:25"
       id="a45">
      <g
         transform="translate(107,9.8333)"
         id="g45">
        <path
           transform="scale(0.0049,-0.0049)"
           d="m 222,135 c 53,0 104,-27 104,-86 0,-71 -56,-120 -103,-148 -36,-22 -76,-36 -118,-36 -53,0 -105,27 -105,86 0,71 57,120 104,148 36,22 76,36 118,36 z"
           fill="currentColor"
           id="path44" />
      </g>
    </a>
    <g
       transform="translate(108.5346,9.8333)"
       id="g46">
      <rect
         x="-0.079499997"
         y="-8.8332996"
         width="0.15899999"
         height="8.5902004"
         ry="0.039999999"
         fill="currentColor"
         id="rect45" />
    </g>
    <a
       style="color:inherit"
       xlink:href="textedit://C:/Users/jwloy/Documents/GitHub/ill20240130/public/pieces/ill20240130/notation/ill20240130-beats.ly:77:27:28"
       id="a47">
      <g
         transform="translate(128,9.8333)"
         id="g47">
        <path
           transform="scale(0.0049,-0.0049)"
           d="m 222,135 c 53,0 104,-27 104,-86 0,-71 -56,-120 -103,-148 -36,-22 -76,-36 -118,-36 -53,0 -105,27 -105,86 0,71 57,120 104,148 36,22 76,36 118,36 z"
           fill="currentColor"
           id="path46" />
      </g>
    </a>
    <g
       transform="translate(129.5346,9.8333)"
       id="g48">
      <rect
         x="-0.079499997"
         y="-8.8332996"
         width="0.15899999"
         height="8.5902004"
         ry="0.039999999"
         fill="currentColor"
         id="rect47" />
    </g>
    <a
       style="color:inherit"
       xlink:href="textedit://C:/Users/jwloy/Documents/GitHub/ill20240130/public/pieces/ill20240130/notation/ill20240130-beats.ly:77:30:31"
       id="a49">
      <g
         transform="translate(149,9.8333)"
         id="g49">
        <path
           transform="scale(0.0049,-0.0049)"
           d="m 222,135 c 53,0 104,-27 104,-86 0,-71 -56,-120 -103,-148 -36,-22 -76,-36 -118,-36 -53,0 -105,27 -105,86 0,71 57,120 104,148 36,22 76,36 118,36 z"
           fill="currentColor"
           id="path48" />
      </g>
    </a>
    <g
       transform="translate(150.5346,9.8333)"
       id="g50">
      <rect
         x="-0.079499997"
         y="-8.8332996"
         width="0.15899999"
         height="8.5902004"
         ry="0.039999999"
         fill="currentColor"
         id="rect49" />
    </g>
    <g
       transform="translate(66.5346,9.8333)"
       id="g51">
      <rect
         x="-0.079499997"
         y="-8.8332996"
         width="0.15899999"
         height="8.5902004"
         ry="0.039999999"
         fill="currentColor"
         id="rect50" />
    </g>
    <a
       style="color:inherit"
       xlink:href="textedit://C:/Users/jwloy/Documents/GitHub/ill20240130/public/pieces/ill20240130/notation/ill20240130-beats.ly:77:15:16"
       id="a52">
      <g
         transform="translate(44,9.8333)"
         id="g52">
        <path
           transform="scale(0.0049,-0.0049)"
           d="m 222,135 c 53,0 104,-27 104,-86 0,-71 -56,-120 -103,-148 -36,-22 -76,-36 -118,-36 -53,0 -105,27 -105,86 0,71 57,120 104,148 36,22 76,36 118,36 z"
           fill="currentColor"
           id="path51" />
      </g>
    </a>
    <g
       transform="translate(45.5346,9.8333)"
       id="g53">
      <rect
         x="-0.079499997"
         y="-8.8332996"
         width="0.15899999"
         height="8.5902004"
         ry="0.039999999"
         fill="currentColor"
         id="rect52" />
    </g>
    <g
       transform="translate(24.5346,9.8333)"
       id="g54">
      <rect
         x="-0.079499997"
         y="-8.8332996"
         width="0.15899999"
         height="8.5902004"
         ry="0.039999999"
         fill="currentColor"
         id="rect53" />
    </g>
    <a
       style="color:inherit"
       xlink:href="textedit://C:/Users/jwloy/Documents/GitHub/ill20240130/public/pieces/ill20240130/notation/ill20240130-beats.ly:77:18:19"
       id="a55">
      <g
         transform="translate(65,9.8333)"
         id="g55">
        <path
           transform="scale(0.0049,-0.0049)"
           d="m 222,135 c 53,0 104,-27 104,-86 0,-71 -56,-120 -103,-148 -36,-22 -76,-36 -118,-36 -53,0 -105,27 -105,86 0,71 57,120 104,148 36,22 76,36 118,36 z"
           fill="currentColor"
           id="path54" />
      </g>
    </a>
    <a
       style="color:inherit"
       xlink:href="textedit://C:/Users/jwloy/Documents/GitHub/ill20240130/public/pieces/ill20240130/notation/ill20240130-beats.ly:77:12:13"
       id="a56">
      <g
         transform="translate(23,9.8333)"
         id="g56">
        <path
           transform="scale(0.0049,-0.0049)"
           d="m 222,135 c 53,0 104,-27 104,-86 0,-71 -56,-120 -103,-148 -36,-22 -76,-36 -118,-36 -53,0 -105,27 -105,86 0,71 57,120 104,148 36,22 76,36 118,36 z"
           fill="currentColor"
           id="path55" />
      </g>
    </a>
    <a
       style="color:inherit"
       xlink:href="textedit://C:/Users/jwloy/Documents/GitHub/ill20240130/public/pieces/ill20240130/notation/ill20240130-beats.ly:77:21:22"
       id="a57">
      <g
         transform="translate(86,9.8333)"
         id="g57">
        <path
           transform="scale(0.0049,-0.0049)"
           d="m 222,135 c 53,0 104,-27 104,-86 0,-71 -56,-120 -103,-148 -36,-22 -76,-36 -118,-36 -53,0 -105,27 -105,86 0,71 57,120 104,148 36,22 76,36 118,36 z"
           fill="currentColor"
           id="path56" />
      </g>
    </a>
    <g
       transform="translate(87.5346,9.8333)"
       id="g58">
      <rect
         x="-0.079499997"
         y="-8.8332996"
         width="0.15899999"
         height="8.5902004"
         ry="0.039999999"
         fill="currentColor"
         id="rect57" />
    </g>
    <a
       style="color:inherit"
       xlink:href="textedit://C:/Users/jwloy/Documents/GitHub/ill20240130/public/pieces/ill20240130/notation/ill20240130-beats.ly:78:14:15"
       id="a59">
      <g
         transform="translate(233,9.8333)"
         id="g59">
        <path
           transform="scale(0.0049,-0.0049)"
           d="m 222,135 c 53,0 104,-27 104,-86 0,-71 -56,-120 -103,-148 -36,-22 -76,-36 -118,-36 -53,0 -105,27 -105,86 0,71 57,120 104,148 36,22 76,36 118,36 z"
           fill="currentColor"
           id="path58" />
      </g>
    </a>
    <a
       style="color:inherit"
       xlink:href="textedit://C:/Users/jwloy/Documents/GitHub/ill20240130/public/pieces/ill20240130/notation/ill20240130-beats.ly:77:33:34"
       id="a60">
      <g
         transform="translate(170,9.8333)"
         id="g60">
        <path
           transform="scale(0.0049,-0.0049)"
           d="m 222,135 c 53,0 104,-27 104,-86 0,-71 -56,-120 -103,-148 -36,-22 -76,-36 -118,-36 -53,0 -105,27 -105,86 0,71 57,120 104,148 36,22 76,36 118,36 z"
           fill="currentColor"
           id="path59" />
      </g>
    </a>
    <a
       style="color:inherit"
       xlink:href="textedit://C:/Users/jwloy/Documents/GitHub/ill20240130/public/pieces/ill20240130/notation/ill20240130-beats.ly:77:8:9"
       id="a61">
      <g
         transform="translate(2,9.8333)"
         id="g61">
        <path
           transform="scale(0.0049,-0.0049)"
           d="m 222,135 c 53,0 104,-27 104,-86 0,-71 -56,-120 -103,-148 -36,-22 -76,-36 -118,-36 -53,0 -105,27 -105,86 0,71 57,120 104,148 36,22 76,36 118,36 z"
           fill="currentColor"
           id="path60" />
      </g>
    </a>
    <a
       style="color:inherit"
       xlink:href="textedit://C:/Users/jwloy/Documents/GitHub/ill20240130/public/pieces/ill20240130/notation/ill20240130-beats.ly:78:17:18"
       id="a62">
      <g
         transform="translate(254,9.8333)"
         id="g62">
        <path
           transform="scale(0.0049,-0.0049)"
           d="m 222,135 c 53,0 104,-27 104,-86 0,-71 -56,-120 -103,-148 -36,-22 -76,-36 -118,-36 -53,0 -105,27 -105,86 0,71 57,120 104,148 36,22 76,36 118,36 z"
           fill="currentColor"
           id="path61" />
      </g>
    </a>
    <g
       transform="translate(255.5346,9.8333)"
       id="g63">
      <rect
         x="-0.079499997"
         y="-8.8332996"
         width="0.15899999"
         height="8.5902004"
         ry="0.039999999"
         fill="currentColor"
         id="rect62" />
    </g>
    <g
       transform="translate(234.5346,9.8333)"
       id="g64">
      <rect
         x="-0.079499997"
         y="-8.8332996"
         width="0.15899999"
         height="8.5902004"
         ry="0.039999999"
         fill="currentColor"
         id="rect63" />
    </g>
    <a
       style="color:inherit"
       xlink:href="textedit://C:/Users/jwloy/Documents/GitHub/ill20240130/public/pieces/ill20240130/notation/ill20240130-beats.ly:78:20:21"
       id="a65">
      <g
         transform="translate(275,9.8333)"
         id="g65">
        <path
           transform="scale(0.0049,-0.0049)"
           d="m 222,135 c 53,0 104,-27 104,-86 0,-71 -56,-120 -103,-148 -36,-22 -76,-36 -118,-36 -53,0 -105,27 -105,86 0,71 57,120 104,148 36,22 76,36 118,36 z"
           fill="currentColor"
           id="path64" />
      </g>
    </a>
    <g
       transform="translate(276.5346,9.8333)"
       id="g66">
      <rect
         x="-0.079499997"
         y="-8.8332996"
         width="0.15899999"
         height="8.5902004"
         ry="0.039999999"
         fill="currentColor"
         id="rect65" />
    </g>
    <a
       style="color:inherit"
       xlink:href="textedit://C:/Users/jwloy/Documents/GitHub/ill20240130/public/pieces/ill20240130/notation/ill20240130-beats.ly:78:23:24"
       id="a67">
      <g
         transform="translate(296,9.8333)"
         id="g67">
        <path
           transform="scale(0.0049,-0.0049)"
           d="m 222,135 c 53,0 104,-27 104,-86 0,-71 -56,-120 -103,-148 -36,-22 -76,-36 -118,-36 -53,0 -105,27 -105,86 0,71 57,120 104,148 36,22 76,36 118,36 z"
           fill="currentColor"
           id="path66" />
      </g>
    </a>
    <g
       transform="translate(297.5346,9.8333)"
       id="g68">
      <rect
         x="-0.079499997"
         y="-8.8332996"
         width="0.15899999"
         height="8.5902004"
         ry="0.039999999"
         fill="currentColor"
         id="rect67" />
    </g>
    <g
       transform="translate(171.5346,9.8333)"
       id="g69">
      <rect
         x="-0.079499997"
         y="-8.8332996"
         width="0.15899999"
         height="8.5902004"
         ry="0.039999999"
         fill="currentColor"
         id="rect68" />
    </g>
    <a
       style="color:inherit"
       xlink:href="textedit://C:/Users/jwloy/Documents/GitHub/ill20240130/public/pieces/ill20240130/notation/ill20240130-beats.ly:78:8:9"
       id="a70">
      <g
         transform="translate(191,9.8333)"
         id="g70">
        <path
           transform="scale(0.0049,-0.0049)"
           d="m 222,135 c 53,0 104,-27 104,-86 0,-71 -56,-120 -103,-148 -36,-22 -76,-36 -118,-36 -53,0 -105,27 -105,86 0,71 57,120 104,148 36,22 76,36 118,36 z"
           fill="currentColor"
           id="path69" />
      </g>
    </a>
    <g
       transform="translate(192.5346,9.8333)"
       id="g71">
      <rect
         x="-0.079499997"
         y="-8.8332996"
         width="0.15899999"
         height="8.5902004"
         ry="0.039999999"
         fill="currentColor"
         id="rect70" />
    </g>
    <g
       transform="translate(3.5346,9.8333)"
       id="g72">
      <rect
         x="-0.079499997"
         y="-8.8332996"
         width="0.15899999"
         height="8.5902004"
         ry="0.039999999"
         fill="currentColor"
         id="rect71" />
    </g>
    <a
       style="color:inherit"
       xlink:href="textedit://C:/Users/jwloy/Documents/GitHub/ill20240130/public/pieces/ill20240130/notation/ill20240130-beats.ly:72:8:9"
       id="a72" />
    <g
       transform="translate(213.5346,9.8333)"
       id="g73">
      <rect
         x="-0.079499997"
         y="-8.8332996"
         width="0.15899999"
         height="8.5902004"
         ry="0.039999999"
         fill="currentColor"
         id="rect72" />
    </g>
    <a
       style="color:inherit"
       xlink:href="textedit://C:/Users/jwloy/Documents/GitHub/ill20240130/public/pieces/ill20240130/notation/ill20240130-beats.ly:78:11:12"
       id="a74">
      <g
         transform="translate(212,9.8333)"
         id="g74">
        <path
           transform="scale(0.0049,-0.0049)"
           d="m 222,135 c 53,0 104,-27 104,-86 0,-71 -56,-120 -103,-148 -36,-22 -76,-36 -118,-36 -53,0 -105,27 -105,86 0,71 57,120 104,148 36,22 76,36 118,36 z"
           fill="currentColor"
           id="path73" />
      </g>
    </a>
  </g>
</svg>
