<?xml version="1.0" encoding="UTF-8" standalone="no"?>
<svg
   version="1.2"
   width="1000.125mm"
   height="15.537955mm"
   viewBox="0 0 569.12624 8.8419563"
   id="svg82"
   xmlns:xlink="http://www.w3.org/1999/xlink"
   xmlns="http://www.w3.org/2000/svg"
   xmlns:svg="http://www.w3.org/2000/svg">
  <defs
     id="defs82" />
  <style
     type="text/css"
     id="style1"><![CDATA[
tspan { white-space: pre; }
]]></style>
  <!-- Page: 1/1 -->
  <g
     id="g83"
     transform="matrix(0.75265732,0,0,0.75265732,-1.3910613,-0.56234845)">
    <a
       style="color:inherit"
       xlink:href="textedit://C:/Users/jwloy/Documents/GitHub/ill20240130/public/pieces/ill20240130/notation/ill20240130.ly:86:17:18"
       id="a1">
      <g
         transform="translate(443,9.8333)"
         id="g1">
        <path
           transform="scale(0.0049,-0.0049)"
           d="m 222,135 c 53,0 104,-27 104,-86 0,-71 -56,-120 -103,-148 -36,-22 -76,-36 -118,-36 -53,0 -105,27 -105,86 0,71 57,120 104,148 36,22 76,36 118,36 z"
           fill="currentColor"
           id="path1" />
      </g>
    </a>
    <g
       transform="translate(423.5346,9.8333)"
       id="g2">
      <rect
         x="-0.079499997"
         y="-8.8332996"
         width="0.15899999"
         height="8.5902004"
         ry="0.039999999"
         fill="currentColor"
         id="rect1" />
    </g>
    <a
       style="color:inherit"
       xlink:href="textedit://C:/Users/jwloy/Documents/GitHub/ill20240130/public/pieces/ill20240130/notation/ill20240130.ly:86:14:15"
       id="a3">
      <g
         transform="translate(422,9.8333)"
         id="g3">
        <path
           transform="scale(0.0049,-0.0049)"
           d="m 222,135 c 53,0 104,-27 104,-86 0,-71 -56,-120 -103,-148 -36,-22 -76,-36 -118,-36 -53,0 -105,27 -105,86 0,71 57,120 104,148 36,22 76,36 118,36 z"
           fill="currentColor"
           id="path2" />
      </g>
    </a>
    <g
       transform="translate(444.5346,9.8333)"
       id="g4">
      <rect
         x="-0.079499997"
         y="-8.8332996"
         width="0.15899999"
         height="8.5902004"
         ry="0.039999999"
         fill="currentColor"
         id="rect3" />
    </g>
    <g
       transform="translate(402.5346,9.8333)"
       id="g5">
      <rect
         x="-0.079499997"
         y="-8.8332996"
         width="0.15899999"
         height="8.5902004"
         ry="0.039999999"
         fill="currentColor"
         id="rect4" />
    </g>
    <a
       style="color:inherit"
       xlink:href="textedit://C:/Users/jwloy/Documents/GitHub/ill20240130/public/pieces/ill20240130/notation/ill20240130.ly:86:11:12"
       id="a6">
      <g
         transform="translate(401,9.8333)"
         id="g6">
        <path
           transform="scale(0.0049,-0.0049)"
           d="m 222,135 c 53,0 104,-27 104,-86 0,-71 -56,-120 -103,-148 -36,-22 -76,-36 -118,-36 -53,0 -105,27 -105,86 0,71 57,120 104,148 36,22 76,36 118,36 z"
           fill="currentColor"
           id="path5" />
      </g>
    </a>
    <g
       transform="translate(381.5346,9.8333)"
       id="g7">
      <rect
         x="-0.079499997"
         y="-8.8332996"
         width="0.15899999"
         height="8.5902004"
         ry="0.039999999"
         fill="currentColor"
         id="rect6" />
    </g>
    <a
       style="color:inherit"
       xlink:href="textedit://C:/Users/jwloy/Documents/GitHub/ill20240130/public/pieces/ill20240130/notation/ill20240130.ly:86:8:9"
       id="a8">
      <g
         transform="translate(380,9.8333)"
         id="g8">
        <path
           transform="scale(0.0049,-0.0049)"
           d="m 222,135 c 53,0 104,-27 104,-86 0,-71 -56,-120 -103,-148 -36,-22 -76,-36 -118,-36 -53,0 -105,27 -105,86 0,71 57,120 104,148 36,22 76,36 118,36 z"
           fill="currentColor"
           id="path7" />
      </g>
    </a>
    <a
       style="color:inherit"
       xlink:href="textedit://C:/Users/jwloy/Documents/GitHub/ill20240130/public/pieces/ill20240130/notation/ill20240130.ly:86:20:21"
       id="a9">
      <g
         transform="translate(464,9.8333)"
         id="g9">
        <path
           transform="scale(0.0049,-0.0049)"
           d="m 222,135 c 53,0 104,-27 104,-86 0,-71 -56,-120 -103,-148 -36,-22 -76,-36 -118,-36 -53,0 -105,27 -105,86 0,71 57,120 104,148 36,22 76,36 118,36 z"
           fill="currentColor"
           id="path8" />
      </g>
    </a>
    <g
       transform="translate(465.5346,9.8333)"
       id="g10">
      <rect
         x="-0.079499997"
         y="-8.8332996"
         width="0.15899999"
         height="8.5902004"
         ry="0.039999999"
         fill="currentColor"
         id="rect9" />
    </g>
    <a
       style="color:inherit"
       xlink:href="textedit://C:/Users/jwloy/Documents/GitHub/ill20240130/public/pieces/ill20240130/notation/ill20240130.ly:86:23:24"
       id="a11">
      <g
         transform="translate(485,9.8333)"
         id="g11">
        <path
           transform="scale(0.0049,-0.0049)"
           d="m 222,135 c 53,0 104,-27 104,-86 0,-71 -56,-120 -103,-148 -36,-22 -76,-36 -118,-36 -53,0 -105,27 -105,86 0,71 57,120 104,148 36,22 76,36 118,36 z"
           fill="currentColor"
           id="path10" />
      </g>
    </a>
    <g
       transform="translate(486.5346,9.8333)"
       id="g12">
      <rect
         x="-0.079499997"
         y="-8.8332996"
         width="0.15899999"
         height="8.5902004"
         ry="0.039999999"
         fill="currentColor"
         id="rect11" />
    </g>
    <a
       style="color:inherit"
       xlink:href="textedit://C:/Users/jwloy/Documents/GitHub/ill20240130/public/pieces/ill20240130/notation/ill20240130.ly:86:26:27"
       id="a13">
      <g
         transform="translate(506,9.8333)"
         id="g13">
        <path
           transform="scale(0.0049,-0.0049)"
           d="m 222,135 c 53,0 104,-27 104,-86 0,-71 -56,-120 -103,-148 -36,-22 -76,-36 -118,-36 -53,0 -105,27 -105,86 0,71 57,120 104,148 36,22 76,36 118,36 z"
           fill="currentColor"
           id="path12" />
      </g>
    </a>
    <g
       transform="translate(507.5346,9.8333)"
       id="g14">
      <rect
         x="-0.079499997"
         y="-8.8332996"
         width="0.15899999"
         height="8.5902004"
         ry="0.039999999"
         fill="currentColor"
         id="rect13" />
    </g>
    <a
       style="color:inherit"
       xlink:href="textedit://C:/Users/jwloy/Documents/GitHub/ill20240130/public/pieces/ill20240130/notation/ill20240130.ly:85:26:27"
       id="a15">
      <g
         transform="translate(317,9.8333)"
         id="g15">
        <path
           transform="scale(0.0049,-0.0049)"
           d="m 222,135 c 53,0 104,-27 104,-86 0,-71 -56,-120 -103,-148 -36,-22 -76,-36 -118,-36 -53,0 -105,27 -105,86 0,71 57,120 104,148 36,22 76,36 118,36 z"
           fill="currentColor"
           id="path14" />
      </g>
    </a>
    <a
       style="color:inherit"
       xlink:href="textedit://C:/Users/jwloy/Documents/GitHub/ill20240130/public/pieces/ill20240130/notation/ill20240130.ly:85:17:18"
       id="a16">
      <g
         transform="translate(254,9.8333)"
         id="g16">
        <path
           transform="scale(0.0049,-0.0049)"
           d="m 222,135 c 53,0 104,-27 104,-86 0,-71 -56,-120 -103,-148 -36,-22 -76,-36 -118,-36 -53,0 -105,27 -105,86 0,71 57,120 104,148 36,22 76,36 118,36 z"
           fill="currentColor"
           id="path15" />
      </g>
    </a>
    <g
       transform="translate(255.5346,9.8333)"
       id="g17">
      <rect
         x="-0.079499997"
         y="-8.8332996"
         width="0.15899999"
         height="8.5902004"
         ry="0.039999999"
         fill="currentColor"
         id="rect16" />
    </g>
    <a
       style="color:inherit"
       xlink:href="textedit://C:/Users/jwloy/Documents/GitHub/ill20240130/public/pieces/ill20240130/notation/ill20240130.ly:85:20:21"
       id="a18">
      <g
         transform="translate(275,9.8333)"
         id="g18">
        <path
           transform="scale(0.0049,-0.0049)"
           d="m 222,135 c 53,0 104,-27 104,-86 0,-71 -56,-120 -103,-148 -36,-22 -76,-36 -118,-36 -53,0 -105,27 -105,86 0,71 57,120 104,148 36,22 76,36 118,36 z"
           fill="currentColor"
           id="path17" />
      </g>
    </a>
    <g
       transform="translate(276.5346,9.8333)"
       id="g19">
      <rect
         x="-0.079499997"
         y="-8.8332996"
         width="0.15899999"
         height="8.5902004"
         ry="0.039999999"
         fill="currentColor"
         id="rect18" />
    </g>
    <a
       style="color:inherit"
       xlink:href="textedit://C:/Users/jwloy/Documents/GitHub/ill20240130/public/pieces/ill20240130/notation/ill20240130.ly:85:23:24"
       id="a20">
      <g
         transform="translate(296,9.8333)"
         id="g20">
        <path
           transform="scale(0.0049,-0.0049)"
           d="m 222,135 c 53,0 104,-27 104,-86 0,-71 -56,-120 -103,-148 -36,-22 -76,-36 -118,-36 -53,0 -105,27 -105,86 0,71 57,120 104,148 36,22 76,36 118,36 z"
           fill="currentColor"
           id="path19" />
      </g>
    </a>
    <g
       transform="translate(297.5346,9.8333)"
       id="g21">
      <rect
         x="-0.079499997"
         y="-8.8332996"
         width="0.15899999"
         height="8.5902004"
         ry="0.039999999"
         fill="currentColor"
         id="rect20" />
    </g>
    <g
       transform="translate(318.5346,9.8333)"
       id="g22">
      <rect
         x="-0.079499997"
         y="-8.8332996"
         width="0.15899999"
         height="8.5902004"
         ry="0.039999999"
         fill="currentColor"
         id="rect21" />
    </g>
    <a
       style="color:inherit"
       xlink:href="textedit://C:/Users/jwloy/Documents/GitHub/ill20240130/public/pieces/ill20240130/notation/ill20240130.ly:85:29:30"
       id="a23">
      <g
         transform="translate(338,9.8333)"
         id="g23">
        <path
           transform="scale(0.0049,-0.0049)"
           d="m 222,135 c 53,0 104,-27 104,-86 0,-71 -56,-120 -103,-148 -36,-22 -76,-36 -118,-36 -53,0 -105,27 -105,86 0,71 57,120 104,148 36,22 76,36 118,36 z"
           fill="currentColor"
           id="path22" />
      </g>
    </a>
    <g
       transform="translate(339.5346,9.8333)"
       id="g24">
      <rect
         x="-0.079499997"
         y="-8.8332996"
         width="0.15899999"
         height="8.5902004"
         ry="0.039999999"
         fill="currentColor"
         id="rect23" />
    </g>
    <a
       style="color:inherit"
       xlink:href="textedit://C:/Users/jwloy/Documents/GitHub/ill20240130/public/pieces/ill20240130/notation/ill20240130.ly:85:32:33"
       id="a25">
      <g
         transform="translate(359,9.8333)"
         id="g25">
        <path
           transform="scale(0.0049,-0.0049)"
           d="m 222,135 c 53,0 104,-27 104,-86 0,-71 -56,-120 -103,-148 -36,-22 -76,-36 -118,-36 -53,0 -105,27 -105,86 0,71 57,120 104,148 36,22 76,36 118,36 z"
           fill="currentColor"
           id="path24" />
      </g>
    </a>
    <g
       transform="translate(360.5346,9.8333)"
       id="g26">
      <rect
         x="-0.079499997"
         y="-8.8332996"
         width="0.15899999"
         height="8.5902004"
         ry="0.039999999"
         fill="currentColor"
         id="rect25" />
    </g>
    <a
       style="color:inherit"
       xlink:href="textedit://C:/Users/jwloy/Documents/GitHub/ill20240130/public/pieces/ill20240130/notation/ill20240130.ly:87:20:21"
       id="a27">
      <g
         transform="translate(653,9.8333)"
         id="g27">
        <path
           transform="scale(0.0049,-0.0049)"
           d="m 222,135 c 53,0 104,-27 104,-86 0,-71 -56,-120 -103,-148 -36,-22 -76,-36 -118,-36 -53,0 -105,27 -105,86 0,71 57,120 104,148 36,22 76,36 118,36 z"
           fill="currentColor"
           id="path26" />
      </g>
    </a>
    <g
       transform="translate(654.5346,9.8333)"
       id="g28">
      <rect
         x="-0.079499997"
         y="-8.8332996"
         width="0.15899999"
         height="8.5902004"
         ry="0.039999999"
         fill="currentColor"
         id="rect27" />
    </g>
    <a
       style="color:inherit"
       xlink:href="textedit://C:/Users/jwloy/Documents/GitHub/ill20240130/public/pieces/ill20240130/notation/ill20240130.ly:87:23:24"
       id="a29">
      <g
         transform="translate(674,9.8333)"
         id="g29">
        <path
           transform="scale(0.0049,-0.0049)"
           d="m 222,135 c 53,0 104,-27 104,-86 0,-71 -56,-120 -103,-148 -36,-22 -76,-36 -118,-36 -53,0 -105,27 -105,86 0,71 57,120 104,148 36,22 76,36 118,36 z"
           fill="currentColor"
           id="path28" />
      </g>
    </a>
    <g
       transform="translate(675.5346,9.8333)"
       id="g30">
      <rect
         x="-0.079499997"
         y="-8.8332996"
         width="0.15899999"
         height="8.5902004"
         ry="0.039999999"
         fill="currentColor"
         id="rect29" />
    </g>
    <a
       style="color:inherit"
       xlink:href="textedit://C:/Users/jwloy/Documents/GitHub/ill20240130/public/pieces/ill20240130/notation/ill20240130.ly:87:26:27"
       id="a31">
      <g
         transform="translate(695,9.8333)"
         id="g31">
        <path
           transform="scale(0.0049,-0.0049)"
           d="m 222,135 c 53,0 104,-27 104,-86 0,-71 -56,-120 -103,-148 -36,-22 -76,-36 -118,-36 -53,0 -105,27 -105,86 0,71 57,120 104,148 36,22 76,36 118,36 z"
           fill="currentColor"
           id="path30" />
      </g>
    </a>
    <g
       transform="translate(696.5346,9.8333)"
       id="g32">
      <rect
         x="-0.079499997"
         y="-8.8332996"
         width="0.15899999"
         height="8.5902004"
         ry="0.039999999"
         fill="currentColor"
         id="rect31" />
    </g>
    <g
       transform="translate(757.9247,0.5039507)"
       id="g33">
      <rect
         x="-0.079499997"
         y="0.2432"
         width="0.15899999"
         height="8.5902004"
         ry="0.039999999"
         fill="currentColor"
         id="rect32" />
    </g>
    <a
       style="color:inherit"
       xlink:href="textedit://C:/Users/jwloy/Documents/GitHub/ill20240130/public/pieces/ill20240130/notation/ill20240130.ly:87:29:30"
       id="a34">
      <g
         transform="translate(716,9.8333)"
         id="g34">
        <path
           transform="scale(0.0049,-0.0049)"
           d="m 222,135 c 53,0 104,-27 104,-86 0,-71 -56,-120 -103,-148 -36,-22 -76,-36 -118,-36 -53,0 -105,27 -105,86 0,71 57,120 104,148 36,22 76,36 118,36 z"
           fill="currentColor"
           id="path33" />
      </g>
    </a>
    <g
       transform="translate(717.5346,9.8333)"
       id="g35">
      <rect
         x="-0.079499997"
         y="-8.8332996"
         width="0.15899999"
         height="8.5902004"
         ry="0.039999999"
         fill="currentColor"
         id="rect34" />
    </g>
    <a
       style="color:inherit"
       xlink:href="textedit://C:/Users/jwloy/Documents/GitHub/ill20240130/public/pieces/ill20240130/notation/ill20240130.ly:87:32:33"
       id="a37">
      <g
         transform="translate(737,9.8333)"
         id="g37">
        <path
           transform="scale(0.0049,-0.0049)"
           d="m 222,135 c 53,0 104,-27 104,-86 0,-71 -56,-120 -103,-148 -36,-22 -76,-36 -118,-36 -53,0 -105,27 -105,86 0,71 57,120 104,148 36,22 76,36 118,36 z"
           fill="currentColor"
           id="path36" />
      </g>
    </a>
    <g
       transform="translate(738.5346,9.8333)"
       id="g38">
      <rect
         x="-0.079499997"
         y="-8.8332996"
         width="0.15899999"
         height="8.5902004"
         ry="0.039999999"
         fill="currentColor"
         id="rect37" />
    </g>
    <a
       style="color:inherit"
       xlink:href="textedit://C:/Users/jwloy/Documents/GitHub/ill20240130/public/pieces/ill20240130/notation/ill20240130.ly:80:56:57"
       id="a39">
      <g
         transform="translate(24.4551,3.0122)"
         id="g39">
        <polygon
           stroke-linejoin="round"
           stroke-linecap="round"
           stroke-width="0.08"
           fill="currentColor"
           stroke="currentColor"
           points="0.04,-0.2 81.331,-0.2 81.331,0.2 0.04,0.2 "
           id="polygon38" />
      </g>
    </a>
    <a
       style="color:inherit"
       xlink:href="textedit://C:/Users/jwloy/Documents/GitHub/ill20240130/public/pieces/ill20240130/notation/ill20240130.ly:86:29:30"
       id="a40">
      <g
         transform="translate(527,9.8333)"
         id="g40">
        <path
           transform="scale(0.0049,-0.0049)"
           d="m 222,135 c 53,0 104,-27 104,-86 0,-71 -56,-120 -103,-148 -36,-22 -76,-36 -118,-36 -53,0 -105,27 -105,86 0,71 57,120 104,148 36,22 76,36 118,36 z"
           fill="currentColor"
           id="path39" />
      </g>
    </a>
    <g
       transform="translate(528.5346,9.8333)"
       id="g41">
      <rect
         x="-0.079499997"
         y="-8.8332996"
         width="0.15899999"
         height="8.5902004"
         ry="0.039999999"
         fill="currentColor"
         id="rect40" />
    </g>
    <a
       style="color:inherit"
       xlink:href="textedit://C:/Users/jwloy/Documents/GitHub/ill20240130/public/pieces/ill20240130/notation/ill20240130.ly:86:32:33"
       id="a42">
      <g
         transform="translate(548,9.8333)"
         id="g42">
        <path
           transform="scale(0.0049,-0.0049)"
           d="m 222,135 c 53,0 104,-27 104,-86 0,-71 -56,-120 -103,-148 -36,-22 -76,-36 -118,-36 -53,0 -105,27 -105,86 0,71 57,120 104,148 36,22 76,36 118,36 z"
           fill="currentColor"
           id="path41" />
      </g>
    </a>
    <g
       transform="translate(549.5346,9.8333)"
       id="g43">
      <rect
         x="-0.079499997"
         y="-8.8332996"
         width="0.15899999"
         height="8.5902004"
         ry="0.039999999"
         fill="currentColor"
         id="rect42" />
    </g>
    <a
       style="color:inherit"
       xlink:href="textedit://C:/Users/jwloy/Documents/GitHub/ill20240130/public/pieces/ill20240130/notation/ill20240130.ly:87:8:9"
       id="a44">
      <g
         transform="translate(569,9.8333)"
         id="g44">
        <path
           transform="scale(0.0049,-0.0049)"
           d="m 222,135 c 53,0 104,-27 104,-86 0,-71 -56,-120 -103,-148 -36,-22 -76,-36 -118,-36 -53,0 -105,27 -105,86 0,71 57,120 104,148 36,22 76,36 118,36 z"
           fill="currentColor"
           id="path43" />
      </g>
    </a>
    <g
       transform="translate(570.5346,9.8333)"
       id="g45">
      <rect
         x="-0.079499997"
         y="-8.8332996"
         width="0.15899999"
         height="8.5902004"
         ry="0.039999999"
         fill="currentColor"
         id="rect44" />
    </g>
    <a
       style="color:inherit"
       xlink:href="textedit://C:/Users/jwloy/Documents/GitHub/ill20240130/public/pieces/ill20240130/notation/ill20240130.ly:87:11:12"
       id="a46">
      <g
         transform="translate(590,9.8333)"
         id="g46">
        <path
           transform="scale(0.0049,-0.0049)"
           d="m 222,135 c 53,0 104,-27 104,-86 0,-71 -56,-120 -103,-148 -36,-22 -76,-36 -118,-36 -53,0 -105,27 -105,86 0,71 57,120 104,148 36,22 76,36 118,36 z"
           fill="currentColor"
           id="path45" />
      </g>
    </a>
    <g
       transform="translate(591.5346,9.8333)"
       id="g47">
      <rect
         x="-0.079499997"
         y="-8.8332996"
         width="0.15899999"
         height="8.5902004"
         ry="0.039999999"
         fill="currentColor"
         id="rect46" />
    </g>
    <a
       style="color:inherit"
       xlink:href="textedit://C:/Users/jwloy/Documents/GitHub/ill20240130/public/pieces/ill20240130/notation/ill20240130.ly:87:14:15"
       id="a48">
      <g
         transform="translate(611,9.8333)"
         id="g48">
        <path
           transform="scale(0.0049,-0.0049)"
           d="m 222,135 c 53,0 104,-27 104,-86 0,-71 -56,-120 -103,-148 -36,-22 -76,-36 -118,-36 -53,0 -105,27 -105,86 0,71 57,120 104,148 36,22 76,36 118,36 z"
           fill="currentColor"
           id="path47" />
      </g>
    </a>
    <g
       transform="translate(612.5346,9.8333)"
       id="g49">
      <rect
         x="-0.079499997"
         y="-8.8332996"
         width="0.15899999"
         height="8.5902004"
         ry="0.039999999"
         fill="currentColor"
         id="rect48" />
    </g>
    <a
       style="color:inherit"
       xlink:href="textedit://C:/Users/jwloy/Documents/GitHub/ill20240130/public/pieces/ill20240130/notation/ill20240130.ly:87:17:18"
       id="a50">
      <g
         transform="translate(632,9.8333)"
         id="g50">
        <path
           transform="scale(0.0049,-0.0049)"
           d="m 222,135 c 53,0 104,-27 104,-86 0,-71 -56,-120 -103,-148 -36,-22 -76,-36 -118,-36 -53,0 -105,27 -105,86 0,71 57,120 104,148 36,22 76,36 118,36 z"
           fill="currentColor"
           id="path49" />
      </g>
    </a>
    <g
       transform="translate(633.5346,9.8333)"
       id="g51">
      <rect
         x="-0.079499997"
         y="-8.8332996"
         width="0.15899999"
         height="8.5902004"
         ry="0.039999999"
         fill="currentColor"
         id="rect50" />
    </g>
    <g
       transform="translate(89.6911,9.8333)"
       id="g52">
      <rect
         x="-0.079499997"
         y="-6.8211002"
         width="0.15899999"
         height="8.5780001"
         ry="0.039999999"
         fill="currentColor"
         id="rect51" />
    </g>
    <a
       style="color:inherit"
       xlink:href="textedit://C:/Users/jwloy/Documents/GitHub/ill20240130/public/pieces/ill20240130/notation/ill20240130.ly:80:61:62"
       id="a53">
      <g
         transform="translate(65.3705,11.8333)"
         id="g53">
        <path
           transform="scale(0.0049,-0.0049)"
           d="m 222,135 c 53,0 104,-27 104,-86 0,-71 -56,-120 -103,-148 -36,-22 -76,-36 -118,-36 -53,0 -105,27 -105,86 0,71 57,120 104,148 36,22 76,36 118,36 z"
           fill="currentColor"
           id="path52" />
      </g>
    </a>
    <g
       transform="translate(66.9051,9.8333)"
       id="g54">
      <rect
         x="-0.079499997"
         y="-6.8211002"
         width="0.15899999"
         height="8.5780001"
         ry="0.039999999"
         fill="currentColor"
         id="rect53" />
    </g>
    <a
       style="color:inherit"
       xlink:href="textedit://C:/Users/jwloy/Documents/GitHub/ill20240130/public/pieces/ill20240130/notation/ill20240130.ly:80:64:65"
       id="a55">
      <g
         transform="translate(78.5162,11.8333)"
         id="g55">
        <path
           transform="scale(0.0049,-0.0049)"
           d="m 222,135 c 53,0 104,-27 104,-86 0,-71 -56,-120 -103,-148 -36,-22 -76,-36 -118,-36 -53,0 -105,27 -105,86 0,71 57,120 104,148 36,22 76,36 118,36 z"
           fill="currentColor"
           id="path54" />
      </g>
    </a>
    <g
       transform="translate(80.0509,9.8333)"
       id="g56">
      <rect
         x="-0.079499997"
         y="-6.8211002"
         width="0.15899999"
         height="8.5780001"
         ry="0.039999999"
         fill="currentColor"
         id="rect55" />
    </g>
    <a
       style="color:inherit"
       xlink:href="textedit://C:/Users/jwloy/Documents/GitHub/ill20240130/public/pieces/ill20240130/notation/ill20240130.ly:80:67:68"
       id="a57">
      <g
         transform="translate(88.1564,11.8333)"
         id="g57">
        <path
           transform="scale(0.0049,-0.0049)"
           d="m 222,135 c 53,0 104,-27 104,-86 0,-71 -56,-120 -103,-148 -36,-22 -76,-36 -118,-36 -53,0 -105,27 -105,86 0,71 57,120 104,148 36,22 76,36 118,36 z"
           fill="currentColor"
           id="path56" />
      </g>
    </a>
    <a
       style="color:inherit"
       xlink:href="textedit://C:/Users/jwloy/Documents/GitHub/ill20240130/public/pieces/ill20240130/notation/ill20240130.ly:80:70:71"
       id="a58">
      <g
         transform="translate(95.2259,11.8333)"
         id="g58">
        <path
           transform="scale(0.0049,-0.0049)"
           d="m 222,135 c 53,0 104,-27 104,-86 0,-71 -56,-120 -103,-148 -36,-22 -76,-36 -118,-36 -53,0 -105,27 -105,86 0,71 57,120 104,148 36,22 76,36 118,36 z"
           fill="currentColor"
           id="path57" />
      </g>
    </a>
    <g
       transform="translate(96.7605,9.8333)"
       id="g59">
      <rect
         x="-0.079499997"
         y="-6.8211002"
         width="0.15899999"
         height="8.5780001"
         ry="0.039999999"
         fill="currentColor"
         id="rect58" />
    </g>
    <a
       style="color:inherit"
       xlink:href="textedit://C:/Users/jwloy/Documents/GitHub/ill20240130/public/pieces/ill20240130/notation/ill20240130.ly:80:73:74"
       id="a60">
      <g
         transform="translate(100.4102,11.8333)"
         id="g60">
        <path
           transform="scale(0.0049,-0.0049)"
           d="m 222,135 c 53,0 104,-27 104,-86 0,-71 -56,-120 -103,-148 -36,-22 -76,-36 -118,-36 -53,0 -105,27 -105,86 0,71 57,120 104,148 36,22 76,36 118,36 z"
           fill="currentColor"
           id="path59" />
      </g>
    </a>
    <g
       transform="translate(101.9448,9.8333)"
       id="g61">
      <rect
         x="-0.079499997"
         y="-6.8211002"
         width="0.15899999"
         height="8.5780001"
         ry="0.039999999"
         fill="currentColor"
         id="rect60" />
    </g>
    <a
       style="color:inherit"
       xlink:href="textedit://C:/Users/jwloy/Documents/GitHub/ill20240130/public/pieces/ill20240130/notation/ill20240130.ly:76:8:9"
       id="a62">
      <g
         transform="translate(2,9.8333)"
         id="g62">
        <path
           transform="scale(0.0066,-0.0066)"
           d="m -23,-113 c 0,26 10,40 36,40 34,0 85,-15 130,-37 L 6,54 c -7,8 -10,17 -10,25 0,33 49,64 86,96 26,22 39,54 39,85 0,24 -8,47 -24,67 l -39,46 c -2,3 -3,6 -3,9 0,7 7,14 14,14 3,0 7,-1 10,-5 L 231,209 c 7,-8 10,-17 10,-25 0,-33 -49,-64 -86,-96 -26,-22 -39,-54 -39,-85 0,-24 8,-47 24,-67 l 87,-104 c 2,-3 3,-5 3,-8 0,-7 -7,-14 -14,-14 -3,0 -7,1 -10,5 -19,22 -66,43 -102,43 -40,0 -52,-29 -52,-70 0,-35 11,-75 28,-96 6,-7 -4,-16 -10,-9 -46,55 -93,150 -93,204 z"
           fill="currentColor"
           id="path61" />
      </g>
    </a>
    <a
       style="color:inherit"
       xlink:href="textedit://C:/Users/jwloy/Documents/GitHub/ill20240130/public/pieces/ill20240130/notation/ill20240130.ly:72:8:9"
       id="a63" />
    <a
       style="color:inherit"
       xlink:href="textedit://C:/Users/jwloy/Documents/GitHub/ill20240130/public/pieces/ill20240130/notation/ill20240130.ly:80:52:53"
       id="a64">
      <g
         transform="translate(23,11.8333)"
         id="g63">
        <path
           transform="scale(0.0049,-0.0049)"
           d="m 222,135 c 53,0 104,-27 104,-86 0,-71 -56,-120 -103,-148 -36,-22 -76,-36 -118,-36 -53,0 -105,27 -105,86 0,71 57,120 104,148 36,22 76,36 118,36 z"
           fill="currentColor"
           id="path63" />
      </g>
    </a>
    <g
       transform="translate(24.5346,9.8333)"
       id="g64">
      <rect
         x="-0.079499997"
         y="-6.8211002"
         width="0.15899999"
         height="8.5780001"
         ry="0.039999999"
         fill="currentColor"
         id="rect64" />
    </g>
    <a
       style="color:inherit"
       xlink:href="textedit://C:/Users/jwloy/Documents/GitHub/ill20240130/public/pieces/ill20240130/notation/ill20240130.ly:80:58:59"
       id="a65">
      <g
         transform="translate(47.4445,11.8333)"
         id="g65">
        <path
           transform="scale(0.0049,-0.0049)"
           d="m 222,135 c 53,0 104,-27 104,-86 0,-71 -56,-120 -103,-148 -36,-22 -76,-36 -118,-36 -53,0 -105,27 -105,86 0,71 57,120 104,148 36,22 76,36 118,36 z"
           fill="currentColor"
           id="path64" />
      </g>
    </a>
    <g
       transform="translate(48.9792,9.8333)"
       id="g66">
      <rect
         x="-0.079499997"
         y="-6.8211002"
         width="0.15899999"
         height="8.5780001"
         ry="0.039999999"
         fill="currentColor"
         id="rect65" />
    </g>
    <a
       style="color:inherit"
       xlink:href="textedit://C:/Users/jwloy/Documents/GitHub/ill20240130/public/pieces/ill20240130/notation/ill20240130.ly:85:8:9"
       id="a67">
      <g
         transform="translate(191,9.8333)"
         id="g67">
        <path
           transform="scale(0.0049,-0.0049)"
           d="m 222,135 c 53,0 104,-27 104,-86 0,-71 -56,-120 -103,-148 -36,-22 -76,-36 -118,-36 -53,0 -105,27 -105,86 0,71 57,120 104,148 36,22 76,36 118,36 z"
           fill="currentColor"
           id="path66" />
      </g>
    </a>
    <a
       style="color:inherit"
       xlink:href="textedit://C:/Users/jwloy/Documents/GitHub/ill20240130/public/pieces/ill20240130/notation/ill20240130.ly:84:12:13"
       id="a68">
      <g
         transform="translate(128,9.8333)"
         id="g68">
        <path
           transform="scale(0.0049,-0.0049)"
           d="m 222,135 c 53,0 104,-27 104,-86 0,-71 -56,-120 -103,-148 -36,-22 -76,-36 -118,-36 -53,0 -105,27 -105,86 0,71 57,120 104,148 36,22 76,36 118,36 z"
           fill="currentColor"
           id="path67" />
      </g>
    </a>
    <g
       transform="translate(129.5346,9.8333)"
       id="g69">
      <rect
         x="-0.079499997"
         y="-8.8332996"
         width="0.15899999"
         height="8.5902004"
         ry="0.039999999"
         fill="currentColor"
         id="rect68" />
    </g>
    <a
       style="color:inherit"
       xlink:href="textedit://C:/Users/jwloy/Documents/GitHub/ill20240130/public/pieces/ill20240130/notation/ill20240130.ly:84:15:16"
       id="a70">
      <g
         transform="translate(149,9.8333)"
         id="g70">
        <path
           transform="scale(0.0049,-0.0049)"
           d="m 222,135 c 53,0 104,-27 104,-86 0,-71 -56,-120 -103,-148 -36,-22 -76,-36 -118,-36 -53,0 -105,27 -105,86 0,71 57,120 104,148 36,22 76,36 118,36 z"
           fill="currentColor"
           id="path69" />
      </g>
    </a>
    <g
       transform="translate(150.5346,9.8333)"
       id="g71">
      <rect
         x="-0.079499997"
         y="-8.8332996"
         width="0.15899999"
         height="8.5902004"
         ry="0.039999999"
         fill="currentColor"
         id="rect70" />
    </g>
    <a
       style="color:inherit"
       xlink:href="textedit://C:/Users/jwloy/Documents/GitHub/ill20240130/public/pieces/ill20240130/notation/ill20240130.ly:84:18:19"
       id="a72">
      <g
         transform="translate(170,9.8333)"
         id="g72">
        <path
           transform="scale(0.0049,-0.0049)"
           d="m 222,135 c 53,0 104,-27 104,-86 0,-71 -56,-120 -103,-148 -36,-22 -76,-36 -118,-36 -53,0 -105,27 -105,86 0,71 57,120 104,148 36,22 76,36 118,36 z"
           fill="currentColor"
           id="path71" />
      </g>
    </a>
    <g
       transform="translate(171.5346,9.8333)"
       id="g73">
      <rect
         x="-0.079499997"
         y="-8.8332996"
         width="0.15899999"
         height="8.5902004"
         ry="0.039999999"
         fill="currentColor"
         id="rect72" />
    </g>
    <g
       transform="translate(192.5346,9.8333)"
       id="g74">
      <rect
         x="-0.079499997"
         y="-8.8332996"
         width="0.15899999"
         height="8.5902004"
         ry="0.039999999"
         fill="currentColor"
         id="rect73" />
    </g>
    <a
       style="color:inherit"
       xlink:href="textedit://C:/Users/jwloy/Documents/GitHub/ill20240130/public/pieces/ill20240130/notation/ill20240130.ly:85:11:12"
       id="a75">
      <g
         transform="translate(212,9.8333)"
         id="g75">
        <path
           transform="scale(0.0049,-0.0049)"
           d="m 222,135 c 53,0 104,-27 104,-86 0,-71 -56,-120 -103,-148 -36,-22 -76,-36 -118,-36 -53,0 -105,27 -105,86 0,71 57,120 104,148 36,22 76,36 118,36 z"
           fill="currentColor"
           id="path74" />
      </g>
    </a>
    <g
       transform="translate(213.5346,9.8333)"
       id="g76">
      <rect
         x="-0.079499997"
         y="-8.8332996"
         width="0.15899999"
         height="8.5902004"
         ry="0.039999999"
         fill="currentColor"
         id="rect75" />
    </g>
    <a
       style="color:inherit"
       xlink:href="textedit://C:/Users/jwloy/Documents/GitHub/ill20240130/public/pieces/ill20240130/notation/ill20240130.ly:85:14:15"
       id="a77">
      <g
         transform="translate(233,9.8333)"
         id="g77">
        <path
           transform="scale(0.0049,-0.0049)"
           d="m 222,135 c 53,0 104,-27 104,-86 0,-71 -56,-120 -103,-148 -36,-22 -76,-36 -118,-36 -53,0 -105,27 -105,86 0,71 57,120 104,148 36,22 76,36 118,36 z"
           fill="currentColor"
           id="path76" />
      </g>
    </a>
    <g
       transform="translate(234.5346,9.8333)"
       id="g78">
      <rect
         x="-0.079499997"
         y="-8.8332996"
         width="0.15899999"
         height="8.5902004"
         ry="0.039999999"
         fill="currentColor"
         id="rect77" />
    </g>
    <g
       transform="translate(108.5346,9.8333)"
       id="g79">
      <rect
         x="-0.079499997"
         y="-8.8332996"
         width="0.15899999"
         height="8.5902004"
         ry="0.039999999"
         fill="currentColor"
         id="rect78" />
    </g>
    <a
       style="color:inherit"
       xlink:href="textedit://C:/Users/jwloy/Documents/GitHub/ill20240130/public/pieces/ill20240130/notation/ill20240130.ly:84:8:9"
       id="a80">
      <g
         transform="translate(107,9.8333)"
         id="g80">
        <path
           transform="scale(0.0049,-0.0049)"
           d="m 222,135 c 53,0 104,-27 104,-86 0,-71 -56,-120 -103,-148 -36,-22 -76,-36 -118,-36 -53,0 -105,27 -105,86 0,71 57,120 104,148 36,22 76,36 118,36 z"
           fill="currentColor"
           id="path79" />
      </g>
    </a>
    <g
       transform="translate(105.7466,9.8333)"
       id="g81">
      <rect
         x="-0.079499997"
         y="-6.8211002"
         width="0.15899999"
         height="8.5780001"
         ry="0.039999999"
         fill="currentColor"
         id="rect80" />
    </g>
    <a
       style="color:inherit"
       xlink:href="textedit://C:/Users/jwloy/Documents/GitHub/ill20240130/public/pieces/ill20240130/notation/ill20240130.ly:80:76:77"
       id="a82">
      <g
         transform="translate(104.212,11.8333)"
         id="g82">
        <path
           transform="scale(0.0049,-0.0049)"
           d="m 222,135 c 53,0 104,-27 104,-86 0,-71 -56,-120 -103,-148 -36,-22 -76,-36 -118,-36 -53,0 -105,27 -105,86 0,71 57,120 104,148 36,22 76,36 118,36 z"
           fill="currentColor"
           id="path81" />
      </g>
    </a>
  </g>
</svg>
